<?xml version="1.0" encoding="UTF-8" standalone="no"?>
<!-- Created with Inkscape (http://www.inkscape.org/) -->

<svg
   version="1.1"
   id="svg2"
   width="853.33331"
   height="854.66669"
   viewBox="0 0 853.33331 854.66669"
   sodipodi:docname="accountability.eps"
   xmlns:inkscape="http://www.inkscape.org/namespaces/inkscape"
   xmlns:sodipodi="http://sodipodi.sourceforge.net/DTD/sodipodi-0.dtd"
   xmlns="http://www.w3.org/2000/svg"
   xmlns:svg="http://www.w3.org/2000/svg">
  <defs
     id="defs6">
    <clipPath
       clipPathUnits="userSpaceOnUse"
       id="clipPath24">
      <path
         d="M 1661.17,5257.87 1213.01,2954.55 1702.85,307.281 3453.83,46.7383 5798.83,1234.86 5444.49,3329.75 4298.01,4455.37 2338.63,6081.23 2036.37,5935.33 Z"
         id="path22" />
    </clipPath>
    <clipPath
       clipPathUnits="userSpaceOnUse"
       id="clipPath30">
      <path
         d="m 1210,37.3984 h 4590 v 6050 H 1210 Z"
         id="path28" />
    </clipPath>
    <clipPath
       clipPathUnits="userSpaceOnUse"
       id="clipPath36">
      <path
         d="M 0,7.40234 H 6400 V 6407.4023 H 0 Z"
         id="path34" />
    </clipPath>
  </defs>
  <sodipodi:namedview
     id="namedview4"
     pagecolor="#ffffff"
     bordercolor="#000000"
     borderopacity="0.25"
     inkscape:showpageshadow="2"
     inkscape:pageopacity="0.0"
     inkscape:pagecheckerboard="0"
     inkscape:deskcolor="#d1d1d1" />
  <g
     id="g8"
     inkscape:groupmode="layer"
     inkscape:label="ink_ext_XXXXXX"
     transform="matrix(1.3333333,0,0,-1.3333333,0,854.66667)">
    <g
       id="g10"
       transform="scale(0.1)">
      <path
         d="M 6294.38,3208.81 C 6294.38,1497.64 4907.15,110.449 3195.98,110.449 1484.77,110.449 97.5781,1497.64 97.5781,3208.81 c 0,1711.21 1387.1919,3098.4 3098.4019,3098.4 1711.17,0 3098.4,-1387.19 3098.4,-3098.4"
         style="fill:#ff9700;fill-opacity:1;fill-rule:evenodd;stroke:none"
         id="path12" />
      <g
         id="g14"
         transform="scale(0.986376,-1.01362)">
        <path
           d="m 6381.31,-3165.68 c 0,1688.18 -1406.39,3056.711 -3141.19,3056.711 -1734.85,0 -3141.1981,-1368.531 -3141.1981,-3056.711 0,-1688.21 1406.3481,-3056.75 3141.1981,-3056.75 1734.8,0 3141.19,1368.54 3141.19,3056.75 z"
           style="fill:none;stroke:#d76621;stroke-width:197.935;stroke-linecap:butt;stroke-linejoin:miter;stroke-miterlimit:4;stroke-dasharray:none;stroke-opacity:1"
           id="path16" />
      </g>
      <g
         id="g18">
        <g
           id="g20"
           clip-path="url(#clipPath24)">
          <g
             id="g26"
             clip-path="url(#clipPath30)">
            <g
               id="g32"
               clip-path="url(#clipPath36)">
              <path
                 d="m 2815.27,5078.06 c -46.87,-42.69 -95.39,-86.87 -238.28,-86.87 -35.94,0 -77.07,2.89 -120.82,8.94 -50.94,-38.71 -52.3,-81.28 -53.12,-106.75 -0.16,-4.89 -0.32,-9.18 -0.75,-12.7 -0.07,-0.66 0.08,-1.21 0.55,-1.72 4.61,-5.31 28.91,-5.54 54.65,-5.82 41.13,-0.43 87.81,-0.94 103.36,-19.02 3.71,-4.3 5.47,-9.38 5.23,-15.16 22,3.83 172,29.81 253.09,43.67 -1.8,7.5 -0.98,14.54 2.46,20.94 11.29,21.02 48.91,32.07 79.14,40.94 19.96,5.9 40.7,11.99 41.99,18.55 6.57,28.17 -7.07,53.01 -19.65,68.83 -24.76,31.25 -67.42,54.81 -97.77,55.31 z M 520.699,3854.86 c 11.84,-16.13 23.051,-15.94 33.871,0.2 17.032,25.43 24.692,77.54 19.102,91.09 -2.934,7.11 -14.961,14.57 -30.192,23.98 -32.699,20.24 -82.109,50.82 -95.781,113.52 -18.789,85.98 -4.578,121.09 2.262,137.97 3.91,9.73 4.488,11.64 -1.25,14.76 -8.16,4.5 -38.16,19.14 -80.781,19.14 -35.629,0 -69.61,-10.31 -101.168,-30.62 64.648,-97.89 233.437,-341.95 253.937,-370.04 M 2600,5608.61 c -0.7,-2.42 5.78,-14.45 12.03,-26.09 19.38,-36.06 55.31,-102.89 44.77,-162.78 32.97,-26.44 51.87,-65.11 51.87,-106.36 0,-76.45 -65,-138.68 -144.92,-138.68 -79.92,0 -144.92,62.23 -144.92,138.68 0,18.75 3.83,36.91 11.29,53.79 5.86,19.88 17.97,135.74 -67.66,172.11 -69.34,-56.57 -109.1,-138.79 -109.1,-225.9 0,-163.6 139.22,-296.68 310.39,-296.68 171.13,0 310.39,133.08 310.39,296.68 0,150.7 -117.89,277.42 -274.14,295.23 m -921.21,374.45 c 0.12,0.32 0.55,1.25 -0.47,3.01 -44.14,54.3 -168.83,135 -331.17,135 -152.85,0 -379.689,-72.42 -592.459,-417.58 -3.953,-6.4 -9.179,-14.61 -15.511,-24.45 -273.828,-427.54 -295.43,-727.62 -64.141,-891.84 83.359,-59.21 172.813,-89.21 265.82,-89.21 44.84,0 89.451,7.11 132.421,21.09 4.92,6.37 -34.14,78.36 -62.42,114.96 -19.059,24.65 -30.508,52.07 -38.872,72.11 -6.718,16.05 -12.539,29.88 -17.687,30.12 -90.86,0 -200.082,61.01 -208.992,233.01 -8.43,162.1 99.382,309.33 186.019,427.61 l 3.121,4.34 c 7.781,10.55 15.86,22.03 24.461,34.1 74.76,105.62 187.81,265.16 364.1,265.16 28.12,0 57.3,-4.07 88.24,-12.27 5.51,0 15.04,5.59 28.2,13.36 22.39,13.24 56.21,33.2 108.83,50.08 38.17,12.22 70.55,17.62 94.18,21.52 19.18,3.2 34.34,5.7 36.33,9.88 M 565.16,4846.03 c -18.32,26.88 -56.449,82.74 -66.57,137.74 -6.289,33.9 -9.02,69.8 -11.211,98.63 -1.758,22.89 -3.551,46.56 -5.93,48.63 -214.969,-189.61 -79.57,-502.38 1.281,-689.25 13.481,-31.1 25.161,-58.01 32.7,-79.18 0.269,-0.24 0.621,-0.51 1.48,-0.51 7.891,0 28.602,18.75 48.641,36.87 7.148,6.45 14.41,13.05 21.398,19.06 28.992,25 57.352,37.7 83.992,48.33 -99.652,216.83 -130.941,335.93 -95.55,363.86 -1.172,2.5 -5.59,8.99 -10.231,15.82 m 86.988,-734.45 c 9.84,-31.99 122.93,-181.29 313.711,-181.29 h 0.039 c 75.622,0.04 155.702,22.89 237.932,68.01 339.37,186.09 196.99,503.44 93.01,735.12 -17.04,37.96 -33.13,73.86 -45.9,106.44 -2.54,6.56 -5.47,14.3 -8.75,23.09 -44.07,117.3 -147.19,392.18 -371.21,392.18 -30.589,0 -62.742,-5.31 -95.628,-15.82 -14.262,-4.14 -9.141,-64.8 -4.653,-91.83 8.051,-48.17 32.071,-99.53 36.68,-109.14 18.562,5.31 35.391,7.89 51.332,7.89 95.859,0 141.449,-94.73 210.389,-238.09 16.6,-34.49 33.75,-70.15 53.52,-108.63 190.5,-371.06 37.61,-506.84 -36.92,-547.97 -29.37,-16.17 -59.22,-24.37 -88.821,-24.37 -101.367,0 -169.258,93.9 -186.367,121.75 -13.133,3.36 -25.903,5.04 -37.973,5.04 -52.809,0 -83.559,-31.4 -100.039,-57.73 -21.41,-34.18 -26.371,-72.15 -20.352,-84.65 M 1808.52,5745.8 c -6.88,2.38 -26.02,4.72 -49.85,4.72 -16.83,0 -41.64,-1.17 -64.02,-6.99 -11.76,-3.01 -23.52,-5.54 -34.45,-7.93 -26.25,-5.66 -51.02,-11.01 -49.58,-18.43 31.76,-122.78 -127.69,-416.68 -415.62,-658.52 -4.73,-4.02 15.35,-45.51 28.63,-72.89 5.55,-11.37 11.02,-22.7 15.67,-32.89 32.42,-71.02 46.52,-93.67 52.65,-99.45 69.03,67.65 609.85,609.41 516.57,892.38 M 473.59,4190.68 l -1.91,0.9 v -5.66 l 2.07,-0.43 c -16.871,-80.9 8.238,-144.38 74.77,-188.71 39.058,-26.06 151.75,-43.6 201.21,-16.76 -2.82,2.34 -9.808,6.25 -16.57,10.11 -27.93,15.71 -79.84,45 -97.301,93.25 -16.168,44.64 -23.668,94.33 30.43,155.19 33.633,37.89 80.27,51.37 112.813,51.37 h 0.078 c 20.121,-0.04 36.601,-5.08 44.531,-14.45 6.68,-28.13 73.129,-93.09 99.301,-108.75 66.789,78.86 46.367,172.5 -1.133,226.4 -65.629,74.49 -206.219,90.24 -327.93,-12.3 -93.828,-78.99 -105.359,-130.71 -112.969,-164.89 -2.152,-9.68 -4.031,-18.08 -7.39,-25.27 m 1611.64,1699.96 c -130.03,37.23 -253.2,56.88 -356.13,56.88 -190.15,0 -312.81,-64.42 -364.61,-191.41 -65.94,-161.64 -35.31,-312.81 79.38,-385.43 13.32,0 52.97,66.95 66.01,88.95 21.57,36.48 36.33,93.39 31.84,99.92 -8.95,3.44 -15.43,10.15 -19.26,19.96 -10.43,26.8 1.13,71.68 16.33,102.03 15.31,30.59 67.73,101.8 223.32,101.8 89.1,0 198.94,-23.21 326.52,-68.95 411.21,-147.46 377.42,-277.22 355.12,-363.12 l -1.68,-6.33 c -8.44,-35.86 25.16,-75.51 56.48,-98.52 22.47,-16.52 60.04,-44.18 77.62,-44.18 2.97,0 5.08,0.82 6.17,2.04 42.27,84.53 80.78,212.42 24.07,341.36 -65.36,148.67 -240.71,264.73 -521.18,345 M 1697.5,5247.09 c 140.08,-57.78 441.72,-167.07 580.51,-167.07 20.58,0 37.03,2.42 48.24,6.87 3.67,3.05 -7.85,17.07 -20.04,31.92 -14.49,17.69 -34.41,41.95 -47.34,68.75 -12.07,25.11 -18.28,46.44 -22.78,62.07 -5.82,19.92 -9.29,31.99 -19.25,34.33 -66.64,14.69 -199.65,58.95 -296.8,91.25 -59.53,19.81 -106.6,35.47 -124.42,39.57 -9.64,0 -25.39,-25.82 -39.29,-48.59 -6.49,-10.67 -13.21,-21.68 -19.49,-30.47 -20.36,-28.55 -42.97,-73.4 -40.39,-86.33 0.23,-1.21 0.7,-2.03 1.05,-2.3 M -549.379,3925.76 c 0,-44.92 36.527,-81.45 81.449,-81.45 44.879,0 81.41,36.53 81.41,81.45 0,44.88 -36.531,81.41 -81.41,81.41 -44.922,0 -81.449,-36.53 -81.449,-81.41 m 81.449,-106.8 c 58.828,0 106.758,47.93 106.758,106.8 0,58.83 -47.93,106.76 -106.758,106.76 -58.91,0 -106.8,-47.93 -106.8,-106.76 0,-58.87 47.89,-106.8 106.8,-106.8 m -373.281,-82.3 c 3.91,14.33 14.332,25.66 29.41,31.95 33.949,14.14 137.071,97.5 152.461,116.17 7.391,8.99 11.18,21.6 11.918,39.73 4.024,96.37 84.613,171.91 183.402,171.91 101.129,0 183.43,-77.07 183.43,-171.83 0,-94.73 -82.301,-171.8 -183.43,-171.8 -4.89,0 -11.289,0.94 -18.05,1.91 -8.668,1.29 -18.481,2.74 -28.051,2.74 -11.719,0 -20.93,-2.15 -28.277,-6.64 -53.122,-32.5 -95.122,-71.33 -132.071,-122.15 l -1.41,-1.95 c -17.301,-23.83 -27.769,-38.17 -41.832,-38.17 -7.23,0 -16.019,3.71 -27.617,11.72 -23.711,16.41 -56.641,52.35 -95.152,103.95 -6.18,8.24 -7.969,20.7 -4.731,32.46 m 815.5118,-155.63 c 5.1094,-11.83 9.9179,-22.97 13.6289,-33.55 18.55077,-52.58 177.8083,-362.38 199.2183,-396.92 16.012,-25.86 40.661,-31.28 58.512,-31.28 8.129,0 16.57,1.09 25.078,3.24 29.301,7.38 112.032,35.78 141.961,77.65 35.391,49.53 -1.84,83.05 -49.73,126.18 -25,22.5 -85.778,80.85 -139.418,132.38 -48.281,46.37 -93.86,90.19 -101.051,95.94 -13.359,10.66 -11.68,32.73 -9.77,58.24 2.469,32.81 5.282,69.96 -23.0816,92.34 -17.8867,14.1 -40.7382,22.15 -62.8086,22.15 -18.82808,0 -36.44918,-5.7 -52.3906,-16.91 -43.039,-30.36 -20.2695,-83.01 -0.1484,-129.46 M -3212.11,1311.07 c 93.16,0 168.99,75.78 168.99,168.95 0,93.2 -75.83,168.98 -168.99,168.98 -93.16,0 -168.98,-75.78 -168.98,-168.98 0,-93.17 75.82,-168.95 168.98,-168.95 m 2339.411,2389.34 c 14.301,-20.43 82.738,-101.99 123.519,-131.99 8.668,-6.41 15.27,-12.23 20.59,-16.92 8.59,-7.5 14.211,-12.5 20.309,-12.5 8.242,0 15.582,8.83 29.961,29.92 27.269,40 75.82,98.09 152.148,147.89 8.121,5.32 16.832,7.78 27.383,7.78 7.461,0 14.809,-1.25 21.879,-2.42 6.64,-1.14 12.89,-2.19 18.859,-2.19 116.531,0 211.371,94.84 211.371,211.4 0,116.57 -94.84,211.41 -211.371,211.41 -113.898,0 -206.75,-92.81 -211.398,-211.33 -0.473,-12.18 -4.379,-16.72 -10.75,-24.22 -1.75,-2.11 -3.711,-4.37 -5.781,-7.07 -17.891,-23.16 -136.52,-114.61 -173.122,-130.86 -14.57,-6.48 -23.476,-15.15 -26.41,-25.7 -3.316,-11.99 0.864,-26.13 12.813,-43.2 m 666.097,-580.67 c 64.332,0 116.6801,52.35 116.6801,116.64 0,64.34 -52.3481,116.68 -116.6801,116.68 -64.339,0 -116.636,-52.34 -116.636,-116.68 0,-64.29 52.297,-116.64 116.636,-116.64 m 133.2817,466.64 c 23.75,-66.95 221.6403,-437.77 245.2303,-475.54 17.469,-28.01 38.32,-41.06 65.512,-41.06 8.629,0 18.129,1.37 29.027,4.07 28.121,7.03 141.281,44.68 181.481,100.5 46.949,65.24 38.242,87.35 -21.481,140.71 -24.301,21.68 -69.929,63.2 -116.648,105.74 -67.571,61.52 -137.461,125.15 -148.59,134.02 -14.609,11.6 -13.32,35.12 -11.832,62.35 2.101,37.65 4.41,80.31 -32.738,109.45 -14.653,11.48 -53.4418,38.16 -97.0316,38.16 -20.039088,0 -38.5196,-5.66 -55,-16.87 -50.1992,-34.1 -63.3203,-90 -37.9297,-161.53 m 594.2613,17.66 c 0,64.34 -52.351,116.68 -116.679,116.68 -64.301,0 -116.641,-52.34 -116.641,-116.68 0,-64.34 52.34,-116.64 116.641,-116.64 64.328,0 116.679,52.3 116.679,116.64 m -613.0113,676.64 c -64.3397,0 -116.6407,-52.34 -116.6407,-116.68 0,-64.3 52.301,-116.64 116.6407,-116.64 64.3398,0 116.6797,52.34 116.6797,116.64 0,64.34 -52.3399,116.68 -116.6797,116.68 m -3709.1797,-1860 c -37.97,402.77 4.14,964.53 420.39,1353.63 410.59,383.79 820.9,554.93 1330.43,554.93 110.27,0 224.02,-7.78 347.73,-23.75 94.65,-12.23 196.33,-18.4 302.27,-18.4 446.801,0 878.828,108.24 1044.879,165.51 l 15.781,5.46 c 103.95,35.86 166.68,57.5 214.93,57.5 61.2892,0 101.1291,-33.59 191.2892,-122.5 C 217.5,4244.12 600.199,3741.46 705.16,3486.58 764.18,3343.22 776.801,3297.6 677.809,3200.45 572.969,3097.56 -2.33984,2569.9 -121.371,2483.73 l -14.649,-10.67 c -59.019,-42.96 -105.66,-76.95 -152.691,-76.95 -47.418,0 -91.68,34.73 -143.519,112.5 -5.86,8.79 -13.59,20.86 -23.161,35.82 -86.988,136.29 -351.839,551.06 -754.999,844.3 -273.87,199.26 -660.16,323.01 -1008.05,323.01 -251.91,0 -476.79,-65.24 -650.39,-188.68 -333.01,-236.83 -434.33,-701.05 -418.08,-1056.48 15.89,-348.2 141.52,-631.76 327.77,-740.12 59.61,-34.68 121.41,-135.31 121.6,-243.71 0.16,-71.13 -26.37,-171.56 -153.44,-246.13 -88.08,-51.64 -163.28,-76.76 -229.92,-76.76 -110.7,0 -199.18,69.22 -286.83,224.45 -94.46,167.31 -250.59,581.33 -293.52,1036.37 m 2337.58,1905.2 c 42.97,0 75.55,3.36 96.99,10 -113.44,40.7 -251.41,100.15 -343.28,139.72 -43.16,18.6 -77.31,33.28 -95.04,40.12 -20.78,8.01 -37.89,13.32 -53.83,13.32 -25.08,0 -46.64,-12.93 -79.61,-47.62 -41.68,-43.86 -63.36,-67.3 -83.83,-89.49 l -13.9,-14.96 c 32.73,3.48 119.02,-6.99 220.66,-19.61 118.95,-14.76 253.83,-31.48 351.84,-31.48 M -7.23047,4164 c 0,46.8 -38.03903,84.85 -84.83983,84.85 -46.7577,0 -84.8397,-38.05 -84.8397,-84.85 0,-46.76 38.082,-84.84 84.8397,-84.84 46.8008,0 84.83983,38.08 84.83983,84.84 M -291.449,3236.38 c 0,-46.75 38.051,-84.8 84.847,-84.8 46.801,0 84.84,38.05 84.84,84.8 0,46.8 -38.039,84.85 -84.84,84.85 -46.796,0 -84.847,-38.05 -84.847,-84.85 M -3177.27,1085.33 c 243.4,-158.318 593.75,-340.037 1146.96,-340.037 159.76,0 330.86,15.547 508.51,46.168 653.948,112.781 993.519,724.059 1109.179,981.679 2.742,6.1 4.851,10.78 6.371,14.06 34.02,72.31 64.02,111.53 124.961,111.53 60.699,0 231.8007,-30.47 310.3085,-55.28 l 8.9102,-2.81 c 26.4805,-8.44 49.3711,-15.74 68.8713,-15.74 29.179,0 59.57,14.84 63.711,124.92 9.797,260.59 -47.032,388.4 -140.6331,575.35 -2.5781,5.12 -8.0781,6.21 -12.2578,6.21 -9.89063,0 -20.55079,-5.74 -23.48048,-10.86 -6.56252,-11.44 -156.44162,-122.3 -198.01162,-146.44 -33.981,-19.69 -65.27,-29.3 -95.738,-29.3 -53.012,0 -100.942,29.34 -142.5,87.19 -12.731,17.73 -32.379,48.67 -57.27,87.81 -107.301,168.87 -307.07,483.32 -531.321,669.03 -18.01,14.92 -24.22,17.22 -26.64,17.22 h -0.04 c -1.76,-2.26 5.66,-17.18 8.47,-22.77 3.52,-6.99 4.73,-9.57 4.61,-10.59 0.28,-0.62 1.57,-2.89 3.71,-6.72 60.32,-107.5 164.852,-328.16 186.762,-598.28 32.699,-402.38 -129.652,-738.63 -482.502,-999.45 -131.17,-96.91 -449.37,-260.98 -810.35,-260.98 -214.57,0 -413.4,57.54 -590.9,170.98 -19.61,12.58 -44.57,17.11 -52.03,8.05 -3.12,-3.79 -3.91,-9.73 -2.38,-17.78 6.91,-36.01 -41.92,-171.64 -105.31,-228.2 -81.41,-72.58 -171.72,-111.41 -284.38,-122.11 -11.76,-1.13 -18.75,-3.87 -19.69,-7.73 -0.78,-3.01 1.37,-10.35 24.1,-25.12 m 7858.25,2569.88 c -65.67,36.96 -186.8,73.91 -400.47,132.66 54.02,-41.25 342.73,-263.4 430.19,-368.09 4.38,16.33 20.71,79.96 24.34,127.19 0.39,4.92 0.78,9.53 1.17,13.87 3.95,43.86 5.39,60.27 -55.23,94.37 m -3270.9,-259.72 c -35.63,-40.04 -50.39,-67.23 -47.85,-88.17 2.61,-21.6 23.08,-35.82 51.52,-55.51 7.66,-5.35 15.86,-10.97 24.3,-17.26 123.75,-91.84 271.52,-207.15 280.66,-229.96 1.84,-4.61 4.49,-7.19 7.31,-9.96 9.72,-9.46 18.12,-17.66 -11.53,-93.44 -1.83,-4.69 -4.41,-11.02 -7.58,-18.87 C 1469.45,2295.21 1428.48,1775.21 1591.41,1418.1 1878.91,788.023 2575.12,291.422 3246.8,237.203 c 11.44,0 19.49,3.168 20.15,7.82 0.82,6.047 -11.52,20.188 -63.2,34.68 -92.38,25.899 -222.54,133.399 -202.34,323.25 20.7,194.57 165.93,245.039 250.66,257.848 30.66,4.609 30.63,10.121 30.63,10.39 -0.43,5.391 -27.35,13.59 -67.04,13.59 -9.02,0 -18,-0.468 -26.68,-1.328 -2.73,-0.312 -6.48,-0.461 -11.01,-0.461 -67.42,0 -315.16,33.821 -561.06,184.178 -313.75,191.79 -511.32,504.41 -571.4,904.06 -46.45,309.14 10.78,569.33 170.08,773.28 223.67,286.37 642.81,460.9 1244.37,518.28 2.15,7.11 3.87,12.7 1.13,16.8 -3.51,5.23 -14.64,8.59 -34.96,10.54 l -8.9,0.94 c -31.25,3.32 -126.29,13.4 -275.2,13.4 -248.59,0 -521.56,-26.68 -811.21,-79.37 -35.04,-6.37 -68.2,-9.61 -98.59,-9.61 -223.99,0 -255.82,173.36 -260.24,226.48 -1.25,14.96 -2.42,30.51 -3.63,46.05 -5.9,77.54 -13.24,174.07 -31.88,174.07 h -0.03 c -176.02,-46.45 -394.97,-118.75 -526.37,-266.6 m 988.01,999.06 c 0,46.8 -38.09,84.84 -84.85,84.84 -46.79,0 -84.84,-38.04 -84.84,-84.84 0,-46.76 38.05,-84.85 84.84,-84.85 46.76,0 84.85,38.09 84.85,84.85 M 3325.9,743.422 c -93.13,0 -168.95,-75.789 -168.95,-168.988 0,-93.161 75.82,-168.942 168.95,-168.942 93.2,0 168.98,75.781 168.98,168.942 0,93.199 -75.78,168.988 -168.98,168.988 m -60.78,3484.208 c -64.34,0 -116.64,-52.3 -116.64,-116.64 0,-64.33 52.3,-116.68 116.64,-116.68 64.33,0 116.68,52.35 116.68,116.68 0,64.34 -52.35,116.64 -116.68,116.64 m -105.16,473.25 c -64.34,0 -116.68,-52.35 -116.68,-116.64 0,-64.34 52.34,-116.68 116.68,-116.68 64.3,0 116.64,52.34 116.64,116.68 0,64.29 -52.34,116.64 -116.64,116.64 M 2542.3,4113.1 c -64.33,0 -116.64,-52.34 -116.64,-116.64 0,-64.33 52.31,-116.68 116.64,-116.68 64.34,0 116.68,52.35 116.68,116.68 0,64.3 -52.34,116.64 -116.68,116.64 m -229.06,398.09 c -64.33,0 -116.68,-52.31 -116.68,-116.64 0,-64.34 52.35,-116.64 116.68,-116.64 64.34,0 116.64,52.3 116.64,116.64 0,64.33 -52.3,116.64 -116.64,116.64 M 4012.97,3124.47 c -222.74,146.88 -510.43,218.28 -879.53,218.28 -278.52,0 -543.91,-40.39 -757.15,-72.85 l -6.6,-1.02 c -51.88,-7.89 -95.51,-11.75 -133.36,-11.75 -149.22,0 -193.91,61.83 -220.59,168.55 -33.4,133.67 -68.01,909.69 -62.15,1074.1 5.51,153.83 73.21,200.35 213.4,241.21 124.03,36.21 819.46,148.6 1092.74,148.6 18.63,0 35.15,-0.55 49.1,-1.57 202.81,-15.23 228.44,-117.77 251.05,-208.24 2.39,-9.53 4.73,-18.83 7.23,-27.77 115.12,-415 431.37,-678.79 766.13,-958.05 442.62,-369.18 900.31,-750.97 851.45,-1513.04 -33.75,-526.76 -84.81,-1322.779 -1661.49,-1873.127 -59.61,-20.82 -117.54,-31.371 -172.18,-31.371 -203.87,0 -318.44,141.918 -322.78,275.469 -6.36,197.312 133.32,302.191 415.12,311.761 144.06,4.84 552.42,123.75 827.34,445.308 207.23,242.39 290.63,541.53 247.97,889.06 -52.62,428.17 -222.77,739.85 -505.7,926.45 m 205.31,-182.38 c 1.37,-1.64 2.81,-3.21 4.18,-4.81 -1.37,1.6 -2.81,3.21 -4.18,4.81 m -32.3,35.39 c -1.45,1.48 -2.89,3.04 -4.34,4.57 1.45,-1.53 2.89,-3.09 4.34,-4.57 M 489.102,3604.04 c 0,46.8 -38.051,84.84 -84.84,84.84 -46.762,0 -84.852,-38.04 -84.852,-84.84 0,-46.76 38.09,-84.84 84.852,-84.84 46.789,0 84.84,38.08 84.84,84.84 m 2138.048,392.42 c 0,46.76 -38.05,84.85 -84.85,84.85 -46.79,0 -84.84,-38.09 -84.84,-84.85 0,-46.79 38.05,-84.84 84.84,-84.84 46.8,0 84.85,38.05 84.85,84.84 m 617.65,587.78 c 0,46.75 -38.08,84.84 -84.84,84.84 -46.8,0 -84.84,-38.09 -84.84,-84.84 0,-46.8 38.04,-84.85 84.84,-84.85 46.76,0 84.84,38.05 84.84,84.85 m 105.16,-473.25 c 0,46.76 -38.05,84.85 -84.84,84.85 -46.8,0 -84.85,-38.09 -84.85,-84.85 0,-46.79 38.05,-84.84 84.85,-84.84 46.79,0 84.84,38.05 84.84,84.84 M -3347.15,1480.02 c 0,-74.46 60.55,-135.04 135.04,-135.04 74.45,0 135.04,60.58 135.04,135.04 0,74.45 -60.59,135.04 -135.04,135.04 -74.49,0 -135.04,-60.59 -135.04,-135.04 M 3325.9,439.434 c -74.45,0 -135,60.546 -135,135 0,74.449 60.55,135.039 135,135.039 74.49,0 135.04,-60.59 135.04,-135.039 0,-74.454 -60.55,-135 -135.04,-135"
                 style="fill:#231f20;fill-opacity:1;fill-rule:nonzero;stroke:none"
                 id="path38" />
            </g>
          </g>
        </g>
      </g>
    </g>
  </g>
</svg>
