<?xml version="1.0" encoding="UTF-8" standalone="no"?>
<!-- Created with Inkscape (http://www.inkscape.org/) -->

<svg
   version="1.1"
   id="svg2"
   width="853.33331"
   height="854.66669"
   viewBox="0 0 853.33331 854.66669"
   sodipodi:docname="auditability.eps"
   xmlns:inkscape="http://www.inkscape.org/namespaces/inkscape"
   xmlns:sodipodi="http://sodipodi.sourceforge.net/DTD/sodipodi-0.dtd"
   xmlns="http://www.w3.org/2000/svg"
   xmlns:svg="http://www.w3.org/2000/svg">
  <defs
     id="defs6" />
  <sodipodi:namedview
     id="namedview4"
     pagecolor="#ffffff"
     bordercolor="#000000"
     borderopacity="0.25"
     inkscape:showpageshadow="2"
     inkscape:pageopacity="0.0"
     inkscape:pagecheckerboard="0"
     inkscape:deskcolor="#d1d1d1" />
  <g
     id="g8"
     inkscape:groupmode="layer"
     inkscape:label="ink_ext_XXXXXX"
     transform="matrix(1.3333333,0,0,-1.3333333,0,854.66667)">
    <g
       id="g10"
       transform="scale(0.1)">
      <path
         d="M 6294.38,3208.81 C 6294.38,1497.64 4907.15,110.449 3195.98,110.449 1484.77,110.449 97.5781,1497.64 97.5781,3208.81 c 0,1711.21 1387.1919,3098.4 3098.4019,3098.4 1711.17,0 3098.4,-1387.19 3098.4,-3098.4"
         style="fill:#ff9700;fill-opacity:1;fill-rule:evenodd;stroke:none"
         id="path12" />
      <g
         id="g14"
         transform="scale(0.986376,-1.01362)">
        <path
           d="m 6381.31,-3165.68 c 0,1688.18 -1406.39,3056.711 -3141.19,3056.711 -1734.85,0 -3141.1981,-1368.531 -3141.1981,-3056.711 0,-1688.21 1406.3481,-3056.75 3141.1981,-3056.75 1734.8,0 3141.19,1368.54 3141.19,3056.75 z"
           style="fill:none;stroke:#d76621;stroke-width:197.935;stroke-linecap:butt;stroke-linejoin:miter;stroke-miterlimit:4;stroke-dasharray:none;stroke-opacity:1"
           id="path16" />
      </g>
      <path
         d="m 4821.05,3103.38 c 13.48,636.33 -493.32,1164.88 -1129.53,1178.32 -636.21,13.48 -1164.88,-493.24 -1178.32,-1129.45 -0.19,-10.67 0.82,-20.71 0.94,-31.37 h -0.12 c 0,-3.2 0.43,-6.41 0.43,-9.81 0.39,-32.61 1.76,-65.35 4.96,-97.34 1.57,-16.99 4.34,-33.75 6.64,-50.63 2.66,-18.75 4.97,-37.26 8.6,-55.58 1.21,-6.52 1.76,-13.17 2.97,-19.49 h 1.68 c 13.55,-63.68 31.25,-125.78 54.88,-185.2 h -2.3 c 32.42,-82.93 74.64,-160.78 124.33,-233.16 h 5 c 110.35,-158.01 259.02,-287.19 433.28,-374.07 h -13.47 c 138.63,-71.32 293.32,-115.42 457.73,-125.19 0.2,2.19 0,4.69 0,6.84 14.8,-0.94 29.1,-2.78 44.1,-3.21 138.44,-2.77 271.17,20 395.31,62.42 v -6.91 c 99.89,33.95 193.91,80.86 279.54,139.65 v 7.34 c 296.52,202.85 495.19,540.59 503.35,926.84 z M 3648.63,2263.73 c -406.87,8.48 -742.11,298.79 -825.35,680 -2.69,12.97 -5.9,25.7 -7.97,38.63 -2.26,13.99 -3.83,28.05 -5.51,42.03 -3.28,30.12 -5.97,60.59 -6.09,91.64 -0.12,10.12 -1.13,19.77 -0.94,30.12 0.82,40.28 5.39,79.73 11.61,118.44 h 1.13 c 13.87,82.3 39.14,160.47 74.45,233.05 h -3.51 c 141.71,297.96 448.08,501.83 798.63,494.37 126.44,-2.69 245.51,-33.12 352.65,-84.26 v -6.83 c 107.47,-51.37 202.31,-124.14 279.65,-212.78 v 6.84 c 136.64,-156.64 218.36,-361.76 213.67,-585.39 -10.03,-476.56 -405.93,-856.09 -882.42,-845.86 z m 1901.02,-890.08 -260.63,-249.72 -867.69,905.19 260.47,249.84 z M 2404.18,4239.86 h -602.66 c -144.84,0 -144.84,233.09 0,233.09 h 602.66 c 144.96,0 144.96,-233.09 0,-233.09 z M 1801.52,3863.1 c -144.84,0 -144.84,233.09 0,233.09 h 602.66 c 144.84,0 144.84,-233.09 0,-233.09 z m 2516.06,-349.29 v -783.95 c -68.44,-112.85 -164.92,-206.56 -279.53,-271.48 v 1326.25 c 115.11,-64.57 211.29,-158.4 279.53,-270.82 z M 4038.05,1919.9 c 98.98,31.06 192.34,75.16 279.53,128.48 V 1164.32 H 1082.97 v 4200.35 h 2633.59 l 601.02,-582.78 v -586.01 c -87.89,53.44 -181.49,96.09 -279.53,126.33 v 318.98 h -465.51 v 443.83 H 1362.62 V 1443.96 h 2675.43 z m -546.68,549.77 h -215.86 c -97.5,58.71 -180.86,138.51 -243.4,233.16 h 459.37 c 144.73,-0.12 144.73,-233.16 -0.11,-233.16 z m -1721.33,233.04 h 711.8 c 28.55,-81.28 65.31,-159.33 110.46,-233.16 h -822.26 c -144.73,0.12 -144.73,233.16 0,233.16 z m 1721.33,185.12 h -547.89 c -23.79,73.63 -36.76,151.88 -36.76,233.17 h 584.57 c 144.92,0 144.92,-233.17 0.08,-233.17 z M 1770.04,3121 h 640.23 c -0.07,-78.99 6.76,-157.07 21.02,-233.17 h -661.25 c -144.73,0 -144.73,233.17 0,233.17 z m 1721.33,143.47 H 2920.7 c 16.18,83.24 45.67,161.84 86.76,233.09 h 483.91 c 144.84,0 144.84,-233.09 0,-233.09 z m -1721.33,233.09 h 698.32 c -23.91,-75.08 -41.09,-152.93 -50.43,-233.09 h -647.89 c -144.73,0 -144.73,233.09 0,233.09 z M 2888.71,1862.32 c -144.84,0 -144.84,232.97 0,232.97 h 51.25 c 174.65,-124.57 377.38,-201.36 592.54,-224.26 -12.11,-4.88 -25.47,-8.71 -41.02,-8.71"
         style="fill:#000000;fill-opacity:1;fill-rule:nonzero;stroke:none"
         id="path18" />
    </g>
  </g>
</svg>
