<?xml version="1.0" encoding="UTF-8" standalone="no"?>
<!-- Created with Inkscape (http://www.inkscape.org/) -->

<svg
   version="1.1"
   id="svg2"
   width="853.33331"
   height="854.66669"
   viewBox="0 0 853.33331 854.66669"
   sodipodi:docname="authenticity.eps"
   xmlns:inkscape="http://www.inkscape.org/namespaces/inkscape"
   xmlns:sodipodi="http://sodipodi.sourceforge.net/DTD/sodipodi-0.dtd"
   xmlns="http://www.w3.org/2000/svg"
   xmlns:svg="http://www.w3.org/2000/svg">
  <defs
     id="defs6" />
  <sodipodi:namedview
     id="namedview4"
     pagecolor="#ffffff"
     bordercolor="#000000"
     borderopacity="0.25"
     inkscape:showpageshadow="2"
     inkscape:pageopacity="0.0"
     inkscape:pagecheckerboard="0"
     inkscape:deskcolor="#d1d1d1" />
  <g
     id="g8"
     inkscape:groupmode="layer"
     inkscape:label="ink_ext_XXXXXX"
     transform="matrix(1.3333333,0,0,-1.3333333,0,854.66667)">
    <g
       id="g10"
       transform="scale(0.1)">
      <path
         d="M 6294.38,3208.81 C 6294.38,1497.64 4907.15,110.449 3195.98,110.449 1484.77,110.449 97.5781,1497.64 97.5781,3208.81 c 0,1711.21 1387.1919,3098.4 3098.4019,3098.4 1711.17,0 3098.4,-1387.19 3098.4,-3098.4"
         style="fill:#ff9700;fill-opacity:1;fill-rule:evenodd;stroke:none"
         id="path12" />
      <g
         id="g14"
         transform="scale(0.986376,-1.01362)">
        <path
           d="m 6381.31,-3165.68 c 0,1688.18 -1406.39,3056.711 -3141.19,3056.711 -1734.85,0 -3141.1981,-1368.531 -3141.1981,-3056.711 0,-1688.21 1406.3481,-3056.75 3141.1981,-3056.75 1734.8,0 3141.19,1368.54 3141.19,3056.75 z"
           style="fill:none;stroke:#d76621;stroke-width:197.935;stroke-linecap:butt;stroke-linejoin:miter;stroke-miterlimit:4;stroke-dasharray:none;stroke-opacity:1"
           id="path16" />
      </g>
      <path
         d="m 4221.02,4246.03 c 0,-590.74 -478.87,-1069.57 -1069.61,-1069.57 -590.67,0 -1069.57,478.83 -1069.57,1069.57 0,590.75 478.86,1069.57 1069.53,1069.57 590.7,0 1069.65,-478.82 1069.65,-1069.57 z M 5305.27,1098.61 c -22.97,-23.71 -59.25,-28.63 -87.69,-11.99 l -780.31,455.39 c -8.05,-88.44 -19.73,-218.01 -31.72,-347.5 -10.67,-115.19 -21.45,-230.311 -29.85,-316.721 -4.29,-43.437 -7.93,-79.648 -10.74,-105 -4.92,-45.508 -11.09,-102.148 -74.84,-103.668 h -0.98 c -18.94,-0.23 -37.07,7.027 -50.7,20.199 -11.29,10.891 -18.79,26.641 -21.29,42.5 -25.55,88.16 -425.35,1007.26 -751.99,1749.84 l -63.75,-47.93 c -22.7,-16.99 -47.5,-31.56 -73.52,-42.89 -115.7,-50.55 -252.19,-37.27 -356.01,34.61 l -113.13,78.28 C 2544.3,1766.85 2170.62,881.43 2146.56,794.82 c -2.3,-15.82 -9.57,-31.64 -20.82,-42.691 -13.47,-13.238 -31.68,-20.738 -50.47,-20.738 -0.31,0 -0.7,0 -0.97,0.039 -63.83,0.851 -70.55,57.379 -76.02,102.808 -3.05,25.274 -6.99,61.524 -11.76,104.922 -9.37,86.25 -21.44,201.29 -33.24,316.33 -13.4,129.41 -26.56,258.75 -35.51,347.11 l -775.31,-463.67 c -28.4,-16.92 -64.69,-12.39 -87.81,11.09 -23.28,23.44 -27.54,59.73 -10.35,87.93 l 951.4,1560.86 c -132.15,38.47 -233.16,148.16 -258.32,286.6 l -91.21,502.11 -306.72,408.08 c -95.19,126.57 -98.47,299.15 -8.28,429.42 l 290.55,419.73 71.64,505.35 c 17.77,125 100.66,234.22 216.44,284.68 25.98,11.45 53.4,19.73 81.37,24.85 l 502.23,91.29 408.01,306.64 c 22.77,17.11 47.5,31.56 73.47,42.89 117.46,51.37 250.51,38.48 356.02,-34.53 l 419.53,-290.51 505.39,-71.72 c 156.88,-22.23 281.25,-141.99 309.65,-297.81 l 91.21,-502.19 306.64,-407.97 c 95.16,-126.6 98.48,-299.18 8.32,-429.53 l -290.55,-419.65 -71.6,-505.27 c -17.81,-125.16 -100.66,-234.26 -216.44,-284.84 -26.02,-11.41 -53.4,-19.69 -81.29,-24.81 L 4290,2827.68 5314.69,1186.74 c 17.5,-28.01 13.59,-64.38 -9.42,-88.13 z m -922.65,3147.42 c 0,680 -551.33,1231.29 -1231.25,1231.29 -680,0 -1231.29,-551.29 -1231.29,-1231.29 0,-680 551.29,-1231.28 1231.29,-1231.28 679.92,0 1231.25,551.28 1231.25,1231.28"
         style="fill:#000000;fill-opacity:1;fill-rule:nonzero;stroke:none"
         id="path18" />
    </g>
  </g>
</svg>
