<?xml version="1.0" encoding="UTF-8" standalone="no"?>
<!-- Created with Inkscape (http://www.inkscape.org/) -->

<svg
   version="1.1"
   id="svg2"
   width="853.33331"
   height="854.66669"
   viewBox="0 0 853.33331 854.66669"
   sodipodi:docname="confidentiality.eps"
   xmlns:inkscape="http://www.inkscape.org/namespaces/inkscape"
   xmlns:sodipodi="http://sodipodi.sourceforge.net/DTD/sodipodi-0.dtd"
   xmlns="http://www.w3.org/2000/svg"
   xmlns:svg="http://www.w3.org/2000/svg">
  <defs
     id="defs6" />
  <sodipodi:namedview
     id="namedview4"
     pagecolor="#ffffff"
     bordercolor="#000000"
     borderopacity="0.25"
     inkscape:showpageshadow="2"
     inkscape:pageopacity="0.0"
     inkscape:pagecheckerboard="0"
     inkscape:deskcolor="#d1d1d1" />
  <g
     id="g8"
     inkscape:groupmode="layer"
     inkscape:label="ink_ext_XXXXXX"
     transform="matrix(1.3333333,0,0,-1.3333333,0,854.66667)">
    <g
       id="g10"
       transform="scale(0.1)">
      <path
         d="M 6294.38,3208.81 C 6294.38,1497.64 4907.15,110.449 3195.98,110.449 1484.77,110.449 97.5781,1497.64 97.5781,3208.81 c 0,1711.21 1387.1919,3098.4 3098.4019,3098.4 1711.17,0 3098.4,-1387.19 3098.4,-3098.4"
         style="fill:#ff9700;fill-opacity:1;fill-rule:evenodd;stroke:none"
         id="path12" />
      <g
         id="g14"
         transform="scale(0.986376,-1.01362)">
        <path
           d="m 6381.31,-3165.68 c 0,1688.18 -1406.39,3056.711 -3141.19,3056.711 -1734.85,0 -3141.1981,-1368.531 -3141.1981,-3056.711 0,-1688.21 1406.3481,-3056.75 3141.1981,-3056.75 1734.8,0 3141.19,1368.54 3141.19,3056.75 z"
           style="fill:none;stroke:#d76621;stroke-width:197.935;stroke-linecap:butt;stroke-linejoin:miter;stroke-miterlimit:4;stroke-dasharray:none;stroke-opacity:1"
           id="path16" />
      </g>
      <path
         d="M 5804.18,4460.64 V 2924.86 c 0,0 -328.71,-64.76 -396.41,-73.28 -67.5,-8.48 -279.61,-76.99 -433.36,70.78 C 4737.34,3149.59 3895,3987.28 3895,3987.28 c 0,0 -145.23,142.5 -378.44,19.34 -214.06,-112.81 -531.36,-278.16 -663.94,-342.58 -250.55,-133.36 -458.21,78.24 -458.21,239.42 0,125.04 78.01,209.88 189.54,272.26 302.22,183.24 939.21,540.78 1204.53,681.76 161.25,85.74 277.46,93.12 498.86,-93.4 272.7,-229.33 515.36,-438.4 515.36,-438.4 0,0 79.14,-66.05 205.35,-39.45 310,65.55 796.13,174.41 796.13,174.41 z M 2451.48,1858.42 c 40.79,104.8 27.15,222.03 -51.05,302.42 -70.27,71.95 -172.89,90.9 -270.7,68.48 27.34,97.03 12.22,200.31 -58.4,273.2 -70.51,71.76 -172.93,91.09 -270.74,68.48 27.14,96.87 12.11,200.15 -58.6,272.81 -110.7,113.55 -302.19,108.67 -427.97,-11.25 -125.11,-120.04 -205.27,-337.58 -93.59,-465.63 111.48,-127.38 239.57,-49.88 337.23,-27.61 -27.15,-96.88 -108.56,-187 -8.32,-313.83 100.15,-126.88 239.57,-49.92 337.34,-27.85 -27.27,-96.53 -105.12,-195.71 -8.71,-313.29 97.26,-117.96 256.6,-55.11 361.8,-22.42 -40.59,-104.41 -127.5,-216.95 -15.86,-343.04 111.52,-127.04 369.18,-68.29 495.04,51.83 125.5,120.04 137.57,310.35 27.14,424.22 -76.21,78.16 -189.84,96.33 -294.61,63.48 z m 2296.49,798.98 c -909.81,909.85 -481.88,481.72 -971.52,972.42 0,0 -147.15,146.49 -341.06,61.37 -136.17,-59.65 -311.44,-140.94 -443.32,-203.01 -144.96,-76.01 -249.26,-99.53 -298.2,-99.22 -280.2,1.84 -507.5,227.04 -507.5,506.92 0,181.6 96.4,339.69 240.15,429.41 202.19,139.89 667.54,387.42 667.54,387.42 0,0 -141.76,179.65 -452.3,179.65 -310.47,0 -959.14,-424.96 -959.14,-424.96 0,0 -183.99,-117.85 -446.33,-11.68 L 730.699,4631.78 V 2874.39 c 0,0 144.379,-41.79 274.101,-94.76 29.3,83.55 76.57,160.7 142.15,224.41 215.2,205 571.92,207.11 767.7,5.51 58.98,-61.29 100.15,-134.41 121.13,-215.23 78.91,-24.34 150.39,-67.47 207.81,-126.64 59.14,-60.86 100.16,-134.42 121.33,-214.81 78.79,-24.37 150.16,-67.66 207.78,-126.87 64.88,-66.92 108.12,-147.74 128.32,-235.32 82.38,-24.02 156.79,-68.63 216.75,-129.96 117.7,-120.86 159.46,-284.84 134.14,-443.01 0.2,0 0.59,0 0.79,-0.35 1.91,-2.5 72.89,-81.64 117.14,-126.29 86.76,-86.79 228.4,-86.79 315.43,0 86.41,86.8 86.8,228.17 0,315.39 -3.12,3.13 -312.97,327.23 -288.04,352.35 24.76,24.96 419.53,-385.78 426.87,-393.32 86.64,-86.64 228.17,-86.64 315.2,0 86.83,86.79 86.64,228.16 0,315.19 -4.26,4.07 -22.03,21.1 -28.64,27.85 0,0 -391.36,348.68 -361.6,378.44 30.16,30 516.33,-423.71 517.11,-423.71 87.38,-78.67 221.99,-78.08 306.1,6.02 81.79,81.79 83.55,211.17 11.01,298.36 -1.52,4.64 -370.51,390.23 -341.72,419.21 29.22,29.42 394.34,-346.52 395.08,-347.3 86.45,-86.64 228.2,-86.64 315.2,0 86.64,86.64 86.64,228.2 0,315.59 -1.18,0.74 -2.7,1.52 -3.87,2.26"
         style="fill:#000000;fill-opacity:1;fill-rule:nonzero;stroke:none"
         id="path18" />
    </g>
  </g>
</svg>
