<?xml version="1.0" encoding="UTF-8" standalone="no"?>
<!-- Created with Inkscape (http://www.inkscape.org/) -->

<svg
   version="1.1"
   id="svg2"
   width="789.33331"
   height="781.33331"
   viewBox="0 0 789.33331 781.33331"
   sodipodi:docname="enforceability-public2.eps"
   xmlns:inkscape="http://www.inkscape.org/namespaces/inkscape"
   xmlns:sodipodi="http://sodipodi.sourceforge.net/DTD/sodipodi-0.dtd"
   xmlns="http://www.w3.org/2000/svg"
   xmlns:svg="http://www.w3.org/2000/svg">
  <defs
     id="defs6">
    <clipPath
       clipPathUnits="userSpaceOnUse"
       id="clipPath22">
      <path
         d="m 1163.55,1267.74 h 3276.88 v 4133.2 H 1163.55 Z"
         id="path20" />
    </clipPath>
  </defs>
  <sodipodi:namedview
     id="namedview4"
     pagecolor="#ffffff"
     bordercolor="#000000"
     borderopacity="0.25"
     inkscape:showpageshadow="2"
     inkscape:pageopacity="0.0"
     inkscape:pagecheckerboard="0"
     inkscape:deskcolor="#d1d1d1" />
  <g
     id="g8"
     inkscape:groupmode="layer"
     inkscape:label="ink_ext_XXXXXX"
     transform="matrix(1.3333333,0,0,-1.3333333,0,781.33333)">
    <g
       id="g10"
       transform="scale(0.1)">
      <path
         d="M 5544.22,3068.55 C 5544.22,1537.81 4303.28,296.879 2772.54,296.879 1241.8,296.879 0.859375,1537.81 0.859375,3068.55 0.859375,4599.3 1241.8,5840.23 2772.54,5840.23 c 1530.74,0 2771.68,-1240.93 2771.68,-2771.68 z"
         style="fill:#ff9700;fill-opacity:1;fill-rule:evenodd;stroke:none"
         id="path12" />
      <path
         d="M 5517.97,3072.7 C 5517.97,1555.2 4287.77,325.039 2770.31,325.039 1252.81,325.039 22.6602,1555.2 22.6602,3072.7 c 0,1517.5 1230.1498,2747.65 2747.6498,2747.65 1517.46,0 2747.66,-1230.15 2747.66,-2747.65 z"
         style="fill:none;stroke:#000000;stroke-width:66.8078;stroke-linecap:butt;stroke-linejoin:miter;stroke-miterlimit:4;stroke-dasharray:none;stroke-opacity:1"
         id="path14" />
      <g
         id="g16">
        <g
           id="g18"
           clip-path="url(#clipPath22)">
          <path
             d="m 3808.36,1702.89 h -2025 l 183.87,318.44 h 1657.3 z m -477.15,826.52 183.05,-317.03 H 2077.54 l 183.05,317.03 z m 113.05,270.86 c -124.61,0 -225.63,101.02 -225.63,225.71 0,124.61 101.02,225.62 225.63,225.62 124.69,0 225.74,-101.01 225.74,-225.62 0,-124.73 -101.05,-225.71 -225.74,-225.71 m 231.36,1187.03 c 0,-180.5 -180.5,-180.5 -180.5,-180.5 H 2050.74 c -180.54,0 -180.54,180.5 -180.54,180.5 v 716.29 c 0,180.51 180.54,180.51 180.54,180.51 h 1444.38 c 180.5,0 180.5,-180.51 180.5,-180.51 z m -338.51,1115.94 c 0,-86.01 -85.98,-86.01 -85.98,-86.01 h -956.44 c -85.94,0 -85.94,86.01 -85.94,86.01 v 76.33 c 0,85.94 85.94,85.94 85.94,85.94 h 956.44 c 85.98,0 85.98,-85.94 85.98,-85.94 z M 1875.86,3025.9 c 0,124.65 101.02,225.66 225.66,225.66 124.61,0 225.67,-101.01 225.67,-225.66 0,-124.65 -101.06,-225.67 -225.67,-225.67 -124.64,0.04 -225.66,101.02 -225.66,225.67 m 2177.66,-1323.01 -183.91,318.44 h 276.64 l -110.27,191.05 h -276.64 l -183.01,317.03 h 37.26 c 0,0 338.48,0 338.48,338.52 v 2194.49 c 0,0 0,338.52 -338.48,338.52 H 1932.27 c 0,0 -338.56,0 -338.56,-338.52 V 2867.97 c 0,0 0,-338.52 338.56,-338.52 h 83.16 l -183.05,-317.03 h -264.33 l -110.32,-191.05 h 264.34 l -183.83,-318.44 h -264.33 l -110.36,-191.05 h 264.38 l -140.94,-244.15 h 245.12 l 140.94,244.15 h 2245.58 l 141.02,-244.15 h 245.08 l -140.9,244.15 h 276.6 l -110.35,191.05 h -276.56 z"
             style="fill:#000000;fill-opacity:1;fill-rule:nonzero;stroke:none"
             id="path24" />
        </g>
      </g>
      <path
         d="m 5882.46,1613.09 c 0,-870.629 -741.05,-1576.4103 -1655.19,-1576.4103 -914.15,0 -1655.2,705.7813 -1655.2,1576.4103 0,870.62 741.05,1576.4 1655.2,1576.4 914.14,0 1655.19,-705.78 1655.19,-1576.4 z"
         style="fill:#ff9700;fill-opacity:1;fill-rule:evenodd;stroke:none"
         id="path26" />
      <path
         d="m 5882.46,1613.09 c 0,-870.629 -741.05,-1576.4103 -1655.19,-1576.4103 -914.15,0 -1655.2,705.7813 -1655.2,1576.4103 0,870.62 741.05,1576.4 1655.2,1576.4 914.14,0 1655.19,-705.78 1655.19,-1576.4 z"
         style="fill:none;stroke:#000000;stroke-width:58.6794;stroke-linecap:butt;stroke-linejoin:miter;stroke-miterlimit:4;stroke-dasharray:none;stroke-opacity:1"
         id="path28" />
      <path
         d="m 5506.6,2472.54 128.95,-207.34 94.37,-224.61 -33.67,-27.74 -9.96,-115.9 -11.76,-209.41 29.06,-150.63 -20.97,-95.62 -45.28,121.91 -103.04,204.38 -10.98,-43.67 -112.89,84.88 -153.52,-73.24 -38.79,30.23 -68.67,-35.04 -124.41,76.41 -21.02,-38.2 91.33,-105.86 75.12,-14.34 51.76,73.24 100.15,-62.11 -57.38,-203.9 -146.33,-161.06 -106.05,-64.49 -76.88,134.18 -81.6,69.14 -18.24,67.77 -55.94,37.07 -90.62,113.48 -15.9,57.46 -7.82,-74.49 -40.97,33.63 -34.14,57.46 17.3,-58.79 55.47,-69.06 69.53,-99.69 99.49,-161.05 156.41,-109.22 54.02,-61.68 158.99,99.88 L 5172.66,1074.1 5042.19,914.84 4894.73,685.738 4923.12,482.539 4761.48,345.621 4693.4,238.051 4493.24,115.82 4323.32,96.0898 l -100.9,76.8792 -110.31,125.941 -17.62,70.891 45.59,68.519 -28.28,93.012 -143.75,173.078 9.72,117.231 -117.26,39.339 -80.55,69.879 -156.87,-31.839 -170.47,14.14 -130.67,112.23 -75.62,132.62 -33.87,97.19 33.4,146.52 -14.34,66.6 90.82,135.82 114.69,84.14 19.88,55.67 81.18,62.73 44.57,58.79 14.06,-18.79 69.41,-10.7 69.92,29.29 110.47,7.89 133.01,9.07 26.41,-56.68 -24.06,-32.93 9.41,-28.75 88.44,-20.98 34.37,-33.44 103.71,-42.26 34.38,11.17 -3.28,47.34 32.22,28.25 46.88,-3.95 7.58,-12.85 71.79,-11.99 99.22,-15.71 52.11,32.93 29.14,-10.62 21.02,1.72 38.79,22.07 17.42,99.49 -10.31,77.97 -35.16,-10.16 -41.68,-32.38 -65.63,15.23 -0.66,-21.6 -55.31,6.45 -51.53,43.4 -16.99,35.07 5.63,43.4 -65.63,-4.61 0.94,-20.31 -29.02,8.75 9.33,-42.5 32.78,-15.2 1.91,-25.85 -29.96,-5.55 9.33,-40.2 -30.62,12.7 -64.65,98.71 -0.78,49.02 -89.65,50.08 -65.86,68.75 -24.84,-8.55 -7.7,-27.89 30.86,-32.23 8.21,-27.62 48.39,-21.68 2.39,-8.36 64.14,-37.15 -5.28,-11.44 -28.24,19.76 -9.41,-15.66 13.24,-27.62 -29.57,-42.65 -7.5,4.02 11.13,32.97 -16.52,35.78 -69.38,39.84 -48.67,64.26 -33.83,25.2 -67.69,-37.39 -45.7,15.79 -29.85,-17.43 3.75,-25.78 -26.13,-22.97 -32.19,-5.5 -40.19,-42.93 6.99,-31.21 -64.38,-50.08 -52.22,5.04 -37.78,-18.83 -31.09,44.88 -30.51,11.41 42.19,160.43 27.19,19.45 139.33,-23.52 27.19,82.04 -47.66,70.15 127,48.71 75,65.82 84.25,26.96 -13.24,69.02 57.74,22.77 -9.93,-77.14 48.68,-15.43 132.73,27.61 24.73,103.13 83.28,46.33 -89.06,-19.54 -28.01,52 37.11,61.72 -6.6,30.82 -83.29,-94.18 18.99,-65.75 -28.01,-80.43 -62.69,-8.12 -29.65,72.34 -75.24,-37.18 -36.25,112.73 95.55,32.42 47.73,51.92 151.84,118.63 179.53,-41.37 -2.07,-80.78 53.87,78.83 126.6,88.9 -14.57,127.66 144.22,76.25 227.93,-93.01 210.27,-126.99 187.66,-157.93 z m -506.33,-168.56 24.77,-48.78 36.68,11.83 -9.38,46.21 -29.88,31.1 z m -198.75,-72.3 29.89,-46.21 86.13,-78.17 13.63,-89.06 87.03,-10.08 36.68,21.88 -102.34,143.71 -70,50.43 16.21,47.89 -29.88,24.41 z m -257.61,-31.72 53.2,-14.88 -62.23,-40.86 -22.18,28.01 13.51,17.57 -42.19,16.41 -61.72,-80.19 -7.57,-87.54 60.15,-6.45 108.24,45.35 150.83,-9.26 12.77,38.6 -128.67,69.73 5.11,65.5 z m 149.96,-1420.819 -6.88,-55.661 29.96,0.821 38.56,63.238 -15.39,13.512 z m -80.55,-178.832 50.51,-38.829 -60.74,115.551 z"
         style="fill:#000000;fill-opacity:1;fill-rule:nonzero;stroke:none"
         id="path30" />
      <path
         d="m 3560.16,2753.28 101.32,15.98 125.2,20.66 173.52,139.49 -10.79,-35.27 136.14,50.04 223,32.03 166.33,66.52 5.71,49.34 -245.94,19.1 -245.94,-19.1 -239.88,-56.76 -43.87,-65.78 185.63,41.88 -136.53,-55.59 -224.88,-156.21 -130.04,-84.57 0.98,-58.36 z"
         style="fill:#000000;fill-opacity:1;fill-rule:nonzero;stroke:none"
         id="path32" />
      <path
         d="m 3968.24,1947.38 10,41.68 -12.38,21.06 -22.34,-17.78 5.7,-17.81 -7.11,-33.24 z"
         style="fill:#000000;fill-opacity:1;fill-rule:nonzero;stroke:none"
         id="path34" />
      <path
         d="m 3963.91,2014.53 14.02,33.67 -6.84,8.75 -18.55,-13.12 z"
         style="fill:#000000;fill-opacity:1;fill-rule:nonzero;stroke:none"
         id="path36" />
      <path
         d="m 4103.48,1866.72 12.93,7.69 -5.94,18.36 11.09,26.8 -26.44,-11.6 -46.29,4.76 -0.16,-13.35 z"
         style="fill:#000000;fill-opacity:1;fill-rule:nonzero;stroke:none"
         id="path38" />
      <path
         d="m 4381.56,1823.67 34.03,20.28 -23.52,-6.61 -54.06,5.67 z"
         style="fill:#000000;fill-opacity:1;fill-rule:nonzero;stroke:none"
         id="path40" />
      <path
         d="m 4568.71,1852.7 11.64,-8.83 24.96,11.48 18.44,27.5 -36.33,-16.29 z"
         style="fill:#000000;fill-opacity:1;fill-rule:nonzero;stroke:none"
         id="path42" />
      <path
         d="m 4965.47,300.469 142.62,144.961 60.7,109.14 -3.01,62.77 -53.12,-73.281 -107.78,-74.68 -1.48,-59.848 -42.46,-43.281 z"
         style="fill:#000000;fill-opacity:1;fill-rule:nonzero;stroke:none"
         id="path44" />
    </g>
  </g>
</svg>
