<?xml version="1.0" encoding="UTF-8" standalone="no"?>
<!-- Created with Inkscape (http://www.inkscape.org/) -->

<svg
   version="1.1"
   id="svg2"
   width="789.33331"
   height="781.33331"
   viewBox="0 0 789.33331 781.33331"
   sodipodi:docname="enforceability-private2.eps"
   xmlns:inkscape="http://www.inkscape.org/namespaces/inkscape"
   xmlns:sodipodi="http://sodipodi.sourceforge.net/DTD/sodipodi-0.dtd"
   xmlns="http://www.w3.org/2000/svg"
   xmlns:svg="http://www.w3.org/2000/svg">
  <defs
     id="defs6">
    <clipPath
       clipPathUnits="userSpaceOnUse"
       id="clipPath22">
      <path
         d="M 1168.71,1265.79 H 4445.59 V 5398.95 H 1168.71 Z"
         id="path20" />
    </clipPath>
  </defs>
  <sodipodi:namedview
     id="namedview4"
     pagecolor="#ffffff"
     bordercolor="#000000"
     borderopacity="0.25"
     inkscape:showpageshadow="2"
     inkscape:pageopacity="0.0"
     inkscape:pagecheckerboard="0"
     inkscape:deskcolor="#d1d1d1" />
  <g
     id="g8"
     inkscape:groupmode="layer"
     inkscape:label="ink_ext_XXXXXX"
     transform="matrix(1.3333333,0,0,-1.3333333,0,781.33333)">
    <g
       id="g10"
       transform="scale(0.1)">
      <path
         d="M 5549.38,3066.6 C 5549.38,1535.86 4308.44,294.922 2777.7,294.922 1246.95,294.922 6.01953,1535.86 6.01953,3066.6 6.01953,4597.34 1246.95,5838.28 2777.7,5838.28 c 1530.74,0 2771.68,-1240.94 2771.68,-2771.68 z"
         style="fill:#ff9700;fill-opacity:1;fill-rule:evenodd;stroke:none"
         id="path12" />
      <path
         d="m 5523.12,3070.74 c 0,-1517.5 -1230.19,-2747.65 -2747.65,-2747.65 -1517.5,0 -2747.6614,1230.15 -2747.6614,2747.65 0,1517.5 1230.1614,2747.66 2747.6614,2747.66 1517.46,0 2747.65,-1230.16 2747.65,-2747.66 z"
         style="fill:none;stroke:#000000;stroke-width:66.8078;stroke-linecap:butt;stroke-linejoin:miter;stroke-miterlimit:4;stroke-dasharray:none;stroke-opacity:1"
         id="path14" />
      <g
         id="g16">
        <g
           id="g18"
           clip-path="url(#clipPath22)">
          <path
             d="m 3813.52,1700.94 h -2025 l 183.86,318.44 h 1657.31 z m -477.15,826.52 183.04,-317.03 H 2082.7 l 183.04,317.03 z m 113.04,270.86 c -124.61,0 -225.62,101.02 -225.62,225.7 0,124.61 101.01,225.63 225.62,225.63 124.69,0 225.75,-101.02 225.75,-225.63 0,-124.72 -101.06,-225.7 -225.75,-225.7 m 231.37,1187.03 c 0,-180.51 -180.51,-180.51 -180.51,-180.51 H 2055.9 c -180.55,0 -180.55,180.51 -180.55,180.51 v 716.29 c 0,180.51 180.55,180.51 180.55,180.51 h 1444.37 c 180.51,0 180.51,-180.51 180.51,-180.51 z m -338.51,1115.94 c 0,-86.02 -85.98,-86.02 -85.98,-86.02 h -956.45 c -85.93,0 -85.93,86.02 -85.93,86.02 v 76.33 c 0,85.93 85.93,85.93 85.93,85.93 h 956.45 c 85.98,0 85.98,-85.93 85.98,-85.93 z M 1880.98,3023.95 c 0,124.6 101.05,225.66 225.7,225.66 124.61,0 225.66,-101.06 225.66,-225.66 0,-124.65 -101.05,-225.67 -225.66,-225.67 -124.65,0.04 -225.7,101.02 -225.7,225.67 m 2177.69,-1323.01 -183.9,318.44 h 276.64 l -110.28,191.05 h -276.64 l -183.01,317.03 h 37.27 c 0,0 338.48,0 338.48,338.52 v 2194.49 c 0,0 0,338.48 -338.48,338.48 H 1937.42 c 0,0 -338.55,0 -338.55,-338.48 V 2866.02 c 0,0 0,-338.52 338.55,-338.52 h 83.17 L 1837.54,2210.47 H 1573.2 l -110.31,-191.06 h 264.34 L 1543.4,1700.98 h -264.34 l -110.35,-191.06 h 264.38 l -140.94,-244.14 h 245.12 l 140.93,244.14 h 2245.59 l 141.01,-244.14 h 245.04 l -140.86,244.14 h 276.61 l -110.36,191.06 h -276.56 z"
             style="fill:#000000;fill-opacity:1;fill-rule:nonzero;stroke:none"
             id="path24" />
        </g>
      </g>
      <path
         d="m 5887.62,1611.13 c 0,-870.618 -741.06,-1576.3995 -1655.2,-1576.3995 -914.14,0 -1655.19,705.7815 -1655.19,1576.3995 0,870.63 741.05,1576.41 1655.19,1576.41 914.14,0 1655.2,-705.78 1655.2,-1576.41 z"
         style="fill:#ff9700;fill-opacity:1;fill-rule:evenodd;stroke:none"
         id="path26" />
      <path
         d="m 5887.62,1611.13 c 0,-870.618 -741.06,-1576.3995 -1655.2,-1576.3995 -914.14,0 -1655.19,705.7815 -1655.19,1576.3995 0,870.63 741.05,1576.41 1655.19,1576.41 914.14,0 1655.2,-705.78 1655.2,-1576.41 z"
         style="fill:none;stroke:#000000;stroke-width:58.6794;stroke-linecap:butt;stroke-linejoin:miter;stroke-miterlimit:4;stroke-dasharray:none;stroke-opacity:1"
         id="path28" />
      <path
         d="m 5362.81,522.93 v 7.66 l -126.68,604.33 c -56.33,275.39 -288.59,474.26 -548.98,474.26 -35.2,0 -63.36,-15.27 -84.45,-45.9 l -211.18,-336.56 c -28.12,-45.9 -84.45,-45.9 -112.57,0 l -211.18,336.56 c -21.09,30.63 -49.25,45.9 -84.45,45.9 -260.39,0 -492.66,-198.87 -548.98,-474.26 L 3307.66,530.59 v -7.66 c 323.75,61.211 675.66,84.14 1027.57,84.14 351.92,0 703.83,-22.929 1027.58,-84.14 z"
         style="fill:#000000;fill-opacity:1;fill-rule:nonzero;stroke:none"
         id="path30" />
      <path
         d="m 4335.23,1700.98 c 295.59,0 527.86,260.11 527.86,573.75 v 237.15 c 0,321.24 -239.3,573.71 -527.86,573.71 -295.58,0 -527.85,-260.08 -527.85,-573.71 v -237.15 c 0,-313.64 232.27,-573.75 527.85,-573.75 z"
         style="fill:#000000;fill-opacity:1;fill-rule:nonzero;stroke:none"
         id="path32" />
    </g>
  </g>
</svg>
