<?xml version="1.0" encoding="UTF-8" standalone="no"?>
<!-- Created with Inkscape (http://www.inkscape.org/) -->

<svg
   version="1.1"
   id="svg2"
   width="790.66669"
   height="781.33331"
   viewBox="0 0 790.66669 781.33331"
   sodipodi:docname="enforceability-user-defined2.eps"
   xmlns:inkscape="http://www.inkscape.org/namespaces/inkscape"
   xmlns:sodipodi="http://sodipodi.sourceforge.net/DTD/sodipodi-0.dtd"
   xmlns="http://www.w3.org/2000/svg"
   xmlns:svg="http://www.w3.org/2000/svg">
  <defs
     id="defs6">
    <clipPath
       clipPathUnits="userSpaceOnUse"
       id="clipPath22">
      <path
         d="m 1174.57,1268.17 h 3276.88 v 4133.2 H 1174.57 Z"
         id="path20" />
    </clipPath>
  </defs>
  <sodipodi:namedview
     id="namedview4"
     pagecolor="#ffffff"
     bordercolor="#000000"
     borderopacity="0.25"
     inkscape:showpageshadow="2"
     inkscape:pageopacity="0.0"
     inkscape:pagecheckerboard="0"
     inkscape:deskcolor="#d1d1d1" />
  <g
     id="g8"
     inkscape:groupmode="layer"
     inkscape:label="ink_ext_XXXXXX"
     transform="matrix(1.3333333,0,0,-1.3333333,0,781.33333)">
    <g
       id="g10"
       transform="scale(0.1)">
      <path
         d="M 5555.23,3068.98 C 5555.23,1538.24 4314.3,297.301 2783.55,297.301 1252.81,297.301 11.8789,1538.24 11.8789,3068.98 c 0,1530.79 1240.9311,2771.68 2771.6711,2771.68 1530.75,0 2771.68,-1240.89 2771.68,-2771.68 z"
         style="fill:#ff9700;fill-opacity:1;fill-rule:evenodd;stroke:none"
         id="path12" />
      <path
         d="M 5528.98,3073.12 C 5528.98,1555.66 4298.83,325.469 2781.33,325.469 1263.83,325.469 33.6719,1555.66 33.6719,3073.12 c 0,1517.5 1230.1581,2747.66 2747.6581,2747.66 1517.5,0 2747.65,-1230.16 2747.65,-2747.66 z"
         style="fill:none;stroke:#000000;stroke-width:66.8078;stroke-linecap:butt;stroke-linejoin:miter;stroke-miterlimit:4;stroke-dasharray:none;stroke-opacity:1"
         id="path14" />
      <g
         id="g16">
        <g
           id="g18"
           clip-path="url(#clipPath22)">
          <path
             d="m 3819.38,1703.32 h -2025 l 183.86,318.44 h 1657.31 z m -477.15,826.52 183.04,-317.03 H 2088.55 l 183.05,317.03 z m 113.04,270.86 c -124.61,0 -225.62,101.06 -225.62,225.71 0,124.61 101.01,225.66 225.62,225.66 124.69,0 225.75,-101.05 225.75,-225.66 0,-124.69 -101.06,-225.71 -225.75,-225.71 m 231.37,1187.07 c 0,-180.54 -180.51,-180.54 -180.51,-180.54 H 2061.76 c -180.55,0 -180.55,180.54 -180.55,180.54 v 716.25 c 0,180.51 180.55,180.51 180.55,180.51 h 1444.37 c 180.51,0 180.51,-180.51 180.51,-180.51 z m -338.52,1115.9 c 0,-85.97 -85.97,-85.97 -85.97,-85.97 H 2305.7 c -85.93,0 -85.93,85.97 -85.93,85.97 V 5180 c 0,85.94 85.93,85.94 85.93,85.94 h 956.45 c 85.97,0 85.97,-85.94 85.97,-85.94 z M 1886.88,3026.37 c 0,124.61 101.01,225.66 225.66,225.66 124.65,0 225.66,-101.05 225.66,-225.66 0,-124.65 -101.01,-225.71 -225.66,-225.71 -124.65,0.04 -225.66,101.06 -225.66,225.71 m 2177.65,-1323.05 -183.91,318.44 h 276.65 l -110.28,191.05 h -276.64 l -183.01,317.03 h 37.27 c 0,0 338.48,0 338.48,338.52 v 2194.53 c 0,0 0,338.48 -338.48,338.48 H 1943.28 c 0,0 -338.55,0 -338.55,-338.48 V 2868.4 c 0,0 0,-338.52 338.55,-338.52 h 83.17 L 1843.4,2212.85 H 1579.06 L 1468.75,2021.8 h 264.34 l -183.83,-318.4 h -264.34 l -110.35,-191.06 h 264.38 l -140.94,-244.18 h 245.11 l 140.94,244.18 h 2245.59 l 141.01,-244.18 h 245.08 l -140.9,244.18 h 276.61 l -110.36,191.06 h -276.56 z"
             style="fill:#000000;fill-opacity:1;fill-rule:nonzero;stroke:none"
             id="path24" />
        </g>
      </g>
      <path
         d="m 5893.48,1613.55 c 0,-870.62 -741.06,-1576.3977 -1655.2,-1576.3977 -914.14,0 -1655.19,705.7777 -1655.19,1576.3977 0,870.59 741.05,1576.37 1655.19,1576.37 914.14,0 1655.2,-705.78 1655.2,-1576.37 z"
         style="fill:#ff9700;fill-opacity:1;fill-rule:evenodd;stroke:none"
         id="path26" />
      <path
         d="m 5893.48,1613.55 c 0,-870.62 -741.06,-1576.3977 -1655.2,-1576.3977 -914.14,0 -1655.19,705.7777 -1655.19,1576.3977 0,870.59 741.05,1576.37 1655.19,1576.37 914.14,0 1655.2,-705.78 1655.2,-1576.37 z"
         style="fill:none;stroke:#000000;stroke-width:58.6794;stroke-linecap:butt;stroke-linejoin:miter;stroke-miterlimit:4;stroke-dasharray:none;stroke-opacity:1"
         id="path28" />
      <path
         d="m 5515.27,807.422 c 0,6.637 -0.66,13.277 -1.99,19.918 -4.76,31.531 -16.09,61.68 -33.2,88.601 -17.03,27.219 -39.65,50.508 -66.37,68.36 l -775.43,535.539 c -28.75,19.81 -38.28,57.89 -22.23,88.91 158.01,307.58 125.51,678.55 -83.59,953.95 -209.1,275.42 -557.66,406.4 -896.41,336.87 -338.71,-69.57 -607.46,-327.3 -691.13,-662.81 -83.67,-335.55 32.66,-689.3 299.06,-909.73 321.8,-269.49 787.82,-278.59 1119.89,-21.87 27.65,21.01 66.56,18.47 91.25,-5.98 L 5127.7,631.879 c 45.35,-45.039 107.57,-68.867 171.4,-65.75 63.83,3.172 123.4,33.051 164.06,82.351 36.96,44.411 55.59,101.25 52.11,158.942 z M 4366.84,1564.3 c -120.28,-146.37 -294.14,-238.52 -482.78,-255.82 -21.91,-3.32 -46.13,-3.32 -68.67,-3.32 -334.06,0.7 -622.93,233 -695.31,559.1 -72.35,326.13 91.17,658.83 393.55,800.74 302.42,141.91 662.82,55.12 867.42,-208.95 204.61,-264.02 198.72,-634.68 -14.21,-892.1 z"
         style="fill:#000000;fill-opacity:1;fill-rule:nonzero;stroke:none"
         id="path30" />
      <path
         d="m 4308.12,1804.84 -362.34,141.37 c -6.37,2.77 -6.37,11.84 0,14.61 71.33,44.65 121.21,116.6 138.05,199.06 38.12,-3.28 66.33,21.25 79.29,74.03 14.93,73.67 17.23,124.76 -46.13,120.78 33.17,251.17 -122.11,117.11 -92.89,226.29 8.6,33.16 -37.19,60.04 -103.55,73 -28.79,5.24 -58.01,7.7 -87.27,7.31 -151.64,-2.34 -331.8,-78.32 -294.65,-307.27 -52.42,10.63 -75,-18.24 -56.4,-102.54 11.6,-70 40.47,-99.53 83.63,-91.6 14.65,-83.08 64.65,-155.7 137.03,-199.06 5.82,-3.12 5.82,-11.48 0,-14.61 l -366.33,-141.37 c -16.13,-6.25 -31.33,-14.76 -45.11,-25.19 -22.66,-17.58 -28.91,-49.14 -14.61,-73.99 114.06,-192.85 321.44,-311.17 545.5,-311.17 224.07,0 431.45,118.32 545.51,311.17 14.3,24.85 8.05,56.41 -14.61,73.99 -13.79,10.43 -28.98,18.94 -45.12,25.19 z"
         style="fill:#000000;fill-opacity:1;fill-rule:nonzero;stroke:none"
         id="path32" />
    </g>
  </g>
</svg>
