<?xml version="1.0" encoding="UTF-8" standalone="no"?>
<!-- Created with Inkscape (http://www.inkscape.org/) -->

<svg
   version="1.1"
   id="svg2"
   width="794.66669"
   height="804"
   viewBox="0 0 794.66669 804"
   sodipodi:docname="privity_weak_dynamic2.eps"
   xmlns:inkscape="http://www.inkscape.org/namespaces/inkscape"
   xmlns:sodipodi="http://sodipodi.sourceforge.net/DTD/sodipodi-0.dtd"
   xmlns="http://www.w3.org/2000/svg"
   xmlns:svg="http://www.w3.org/2000/svg">
  <defs
     id="defs6" />
  <sodipodi:namedview
     id="namedview4"
     pagecolor="#ffffff"
     bordercolor="#000000"
     borderopacity="0.25"
     inkscape:showpageshadow="2"
     inkscape:pageopacity="0.0"
     inkscape:pagecheckerboard="0"
     inkscape:deskcolor="#d1d1d1" />
  <g
     id="g8"
     inkscape:groupmode="layer"
     inkscape:label="ink_ext_XXXXXX"
     transform="matrix(1.3333333,0,0,-1.3333333,0,804)">
    <g
       id="g10"
       transform="scale(0.1)">
      <path
         d="M 5943.83,3014.22 C 5943.83,1377.3 4616.84,50.3516 2979.96,50.3516 1343.05,50.3516 16.0898,1377.3 16.0898,3014.22 c 0,1636.87 1326.9602,2963.87 2963.8702,2963.87 1636.88,0 2963.87,-1327 2963.87,-2963.87 z"
         style="fill:#ff9700;fill-opacity:1;fill-rule:evenodd;stroke:none"
         id="path12" />
      <path
         d="m 5859.73,3018.63 c 0,-1607.61 -1290.39,-2910.86 -2882.15,-2910.86 -1591.8,0 -2882.1894,1303.25 -2882.1894,2910.86 0,1607.66 1290.3894,2910.9 2882.1894,2910.9 1591.76,0 2882.15,-1303.24 2882.15,-2910.9 z"
         style="fill:none;stroke:#000000;stroke-width:198.425;stroke-linecap:butt;stroke-linejoin:miter;stroke-miterlimit:4;stroke-dasharray:none;stroke-opacity:1"
         id="path14" />
      <path
         d="M 5410.9,3038.95 C 5410.9,1635.82 4325,498.402 2985.43,498.402 1645.86,498.402 559.961,1635.82 559.961,3038.95 c 0,1403.12 1085.899,2540.54 2425.469,2540.54 1339.57,0 2425.47,-1137.42 2425.47,-2540.54 z"
         style="fill:none;stroke:#000000;stroke-width:198.425;stroke-linecap:butt;stroke-linejoin:miter;stroke-miterlimit:4;stroke-dasharray:none;stroke-opacity:1"
         id="path16" />
      <path
         d="m 2063.83,3598.28 c 0,-259.49 -224.49,-469.88 -501.45,-469.88 -276.91,0 -501.44,210.39 -501.44,469.88 0,259.53 224.53,469.88 501.44,469.88 276.96,0 501.45,-210.35 501.45,-469.88 z"
         style="fill:#000000;fill-opacity:1;fill-rule:nonzero;stroke:none"
         id="path18" />
      <path
         d="m 1908.79,3173.52 c -96.13,-69.03 -216.25,-110.16 -346.41,-110.16 -130.15,0 -250.23,41.13 -346.36,110.16 -258.872,-90.32 -437.04,-278.56 -437.04,-496.22 0,-305.54 350.75,-291.05 783.4,-291.05 432.66,0 783.4,-14.49 783.4,291.05 0,217.7 -178.12,405.9 -436.99,496.22 z"
         style="fill:#000000;fill-opacity:1;fill-rule:nonzero;stroke:none"
         id="path20" />
      <path
         d="m 4630.27,4501.56 c 0,-259.49 -224.49,-469.88 -501.44,-469.88 -276.95,0 -501.45,210.39 -501.45,469.88 0,259.53 224.5,469.89 501.45,469.89 276.95,0 501.44,-210.36 501.44,-469.89 z"
         style="fill:#000000;fill-opacity:1;fill-rule:nonzero;stroke:none"
         id="path22" />
      <path
         d="m 4475.23,4076.8 c -96.13,-69.03 -216.25,-110.16 -346.4,-110.16 -130.16,0 -250.24,41.13 -346.41,110.16 -258.87,-90.32 -436.99,-278.56 -436.99,-496.21 0,-305.55 350.74,-291.02 783.36,-291.02 432.69,0 783.4,-14.53 783.4,291.02 0.04,217.69 -178.09,405.89 -436.96,496.21 z"
         style="fill:#000000;fill-opacity:1;fill-rule:nonzero;stroke:none"
         id="path24" />
      <path
         d="m 4545.59,2617.62 c 0,-259.53 -224.5,-469.89 -501.45,-469.89 -276.91,0 -501.44,210.36 -501.44,469.89 0,259.49 224.53,469.88 501.44,469.88 276.95,0 501.45,-210.39 501.45,-469.88 z"
         style="fill:#000000;fill-opacity:1;fill-rule:nonzero;stroke:none"
         id="path26" />
      <path
         d="m 4390.55,2192.81 c -96.14,-68.98 -216.21,-110.11 -346.41,-110.11 -130.16,0 -250.23,41.13 -346.37,110.11 -258.86,-90.27 -437.03,-278.51 -437.03,-496.21 0,-305.51 350.78,-291.01 783.4,-291.01 432.66,0 783.4,-14.5 783.4,291.01 0,217.74 -178.13,405.94 -436.99,496.21 z"
         style="fill:#000000;fill-opacity:1;fill-rule:nonzero;stroke:none"
         id="path28" />
      <path
         d="m 3205.2,2800.23 c 15.93,6.41 33,-4.57 38.12,-24.53 l 148.4,-577.93 c 2.58,-10.04 1.64,-20.39 -1.95,-29.06 -3.52,-8.67 -9.73,-15.62 -17.7,-18.87 l -461.76,-185.7 c -15.9,-6.41 -33.01,4.53 -38.12,24.49 l -18.52,72.27 c -5.15,19.92 3.63,41.29 19.57,47.73 l 293.64,118.09 -737.35,473.98 c -14.88,9.57 -20.74,32.46 -13.12,51.1 l 27.69,67.5 c 7.66,18.63 25.94,25.97 40.82,16.4 l 737.35,-473.98 -94.38,367.54 c -5.12,19.96 3.67,41.33 19.57,47.73 z"
         style="fill:#000000;fill-opacity:1;fill-rule:nonzero;stroke:none"
         id="path30" />
      <path
         d="m 2743.09,3928.67 c 2.46,18.75 19.18,30.43 37.3,26.06 l 525.12,-126.45 c 9.1,-2.23 16.83,-8.05 21.95,-15.66 5.16,-7.58 7.7,-16.96 6.49,-26.37 l -71.8,-543.36 c -2.46,-18.75 -19.18,-30.43 -37.31,-26.05 l -65.66,15.82 c -18.13,4.33 -30.78,23.08 -28.32,41.83 l 45.66,345.55 -721.36,-503.83 c -14.57,-10.16 -35.36,-5.16 -46.45,11.21 l -40.04,59.18 c -11.09,16.37 -8.24,37.85 6.33,48.05 l 721.37,503.83 -333.95,80.43 c -18.12,4.33 -30.82,23.08 -28.32,41.83 z"
         style="fill:#000000;fill-opacity:1;fill-rule:nonzero;stroke:none"
         id="path32" />
    </g>
  </g>
</svg>
