<?xml version="1.0" encoding="UTF-8" standalone="no"?>
<!-- Created with Inkscape (http://www.inkscape.org/) -->

<svg
   version="1.1"
   id="svg2"
   width="793.33331"
   height="804"
   viewBox="0 0 793.33331 804"
   sodipodi:docname="privity_static2.eps"
   xmlns:inkscape="http://www.inkscape.org/namespaces/inkscape"
   xmlns:sodipodi="http://sodipodi.sourceforge.net/DTD/sodipodi-0.dtd"
   xmlns="http://www.w3.org/2000/svg"
   xmlns:svg="http://www.w3.org/2000/svg">
  <defs
     id="defs6" />
  <sodipodi:namedview
     id="namedview4"
     pagecolor="#ffffff"
     bordercolor="#000000"
     borderopacity="0.25"
     inkscape:showpageshadow="2"
     inkscape:pageopacity="0.0"
     inkscape:pagecheckerboard="0"
     inkscape:deskcolor="#d1d1d1" />
  <g
     id="g8"
     inkscape:groupmode="layer"
     inkscape:label="ink_ext_XXXXXX"
     transform="matrix(1.3333333,0,0,-1.3333333,0,804)">
    <g
       id="g10"
       transform="scale(0.1)">
      <path
         d="M 5927.73,3010.82 C 5927.73,1373.95 4600.78,46.9492 2963.87,46.9492 1326.95,46.9492 0,1373.95 0,3010.82 c 0,1636.91 1326.95,2963.87 2963.87,2963.87 1636.91,0 2963.86,-1326.96 2963.86,-2963.87 z"
         style="fill:#ff9700;fill-opacity:1;fill-rule:evenodd;stroke:none"
         id="path12" />
      <path
         d="M 5843.63,3015.27 C 5843.63,1407.62 4553.24,104.379 2961.48,104.379 1369.69,104.379 79.3008,1407.62 79.3008,3015.27 c 0,1607.62 1290.3892,2910.86 2882.1792,2910.86 1591.76,0 2882.15,-1303.24 2882.15,-2910.86 z"
         style="fill:none;stroke:#000000;stroke-width:198.425;stroke-linecap:butt;stroke-linejoin:miter;stroke-miterlimit:4;stroke-dasharray:none;stroke-opacity:1"
         id="path14" />
      <path
         d="M 5394.84,3035.55 C 5394.84,1632.42 4308.91,495 2969.34,495 1629.8,495 543.871,1632.42 543.871,3035.55 c 0,1403.12 1085.929,2540.54 2425.469,2540.54 1339.57,0 2425.5,-1137.42 2425.5,-2540.54 z"
         style="fill:none;stroke:#000000;stroke-width:198.425;stroke-linecap:butt;stroke-linejoin:miter;stroke-miterlimit:4;stroke-dasharray:none;stroke-opacity:1"
         id="path16" />
      <path
         d="m 3242.19,4695.74 c 0,-133.08 -107.89,-240.97 -240.98,-240.97 -133.09,0 -240.98,107.89 -240.98,240.97 0,133.09 107.89,240.98 240.98,240.98 133.09,0 240.98,-107.89 240.98,-240.98 z"
         style="fill:#000000;fill-opacity:1;fill-rule:nonzero;stroke:none"
         id="path18" />
      <path
         d="m 2029.26,2302.07 c 0,-133.09 -107.89,-240.98 -240.98,-240.98 -133.08,0 -240.98,107.89 -240.98,240.98 0,133.09 107.9,240.98 240.98,240.98 133.09,0 240.98,-107.89 240.98,-240.98 z"
         style="fill:#000000;fill-opacity:1;fill-rule:nonzero;stroke:none"
         id="path20" />
      <path
         d="m 4422.97,2302.07 c 0,-133.09 -107.89,-240.98 -240.98,-240.98 -133.08,0 -240.97,107.89 -240.97,240.98 0,133.09 107.89,240.98 240.97,240.98 133.09,0 240.98,-107.89 240.98,-240.98 z"
         style="fill:#000000;fill-opacity:1;fill-rule:nonzero;stroke:none"
         id="path22" />
      <path
         d="m 4623.79,2695.66 c 32.11,120.47 48.16,257.04 48.16,385.55 0,658.67 -385.54,1228.99 -939.8,1494.02 -40.16,369.54 -345.39,658.68 -722.89,658.68 -377.54,0 -690.82,-289.14 -722.93,-658.68 -570.31,-265.03 -955.9,-835.35 -955.9,-1494.02 0,-128.51 16.09,-249.02 40.19,-369.49 -192.81,-128.52 -321.32,-353.44 -321.32,-602.46 0,-401.6 329.33,-730.94 730.97,-730.94 192.78,0 369.5,72.3 498.01,192.77 216.88,-104.41 457.85,-160.66 714.88,-160.66 249.03,0 481.96,56.25 690.82,152.62 128.52,-112.43 297.19,-184.73 489.97,-184.73 401.64,0 730.97,329.34 730.97,730.94 8.01,240.97 -104.41,449.84 -281.13,586.4 z M 3001.21,5129.49 c 345.39,0 618.52,-281.13 618.52,-618.51 0,-160.63 -64.26,-313.25 -168.71,-425.71 -96.37,152.62 -265.08,248.99 -457.86,248.99 -192.77,0 -361.44,-104.42 -457.85,-248.99 -104.41,112.46 -168.67,257.03 -168.67,425.71 16.06,337.38 289.18,618.51 634.57,618.51 z M 2238.12,1683.55 c -96.4,152.62 -265.07,248.99 -457.85,248.99 -192.77,0 -361.48,-104.42 -457.85,-248.99 -104.41,112.47 -168.67,257.04 -168.67,425.71 0,345.43 281.13,618.51 618.48,618.51 337.38,0 618.51,-281.13 618.51,-618.51 16.06,-160.63 -48.2,-313.24 -152.62,-425.71 z m 763.09,-64.25 c -208.87,0 -401.64,48.2 -578.36,120.47 64.26,104.45 96.41,232.96 96.41,369.49 0,401.64 -329.34,730.97 -730.98,730.97 -80.31,0 -152.62,-8.04 -216.87,-32.14 -16.06,88.36 -32.11,176.71 -32.11,273.12 0,546.21 305.23,1020.12 747.03,1269.14 72.26,-329.33 361.44,-578.36 714.88,-578.36 353.44,0 642.58,249.03 714.88,578.36 441.8,-249.02 747.03,-722.93 747.03,-1269.14 0,-96.41 -8.04,-192.77 -32.14,-281.13 -80.32,32.11 -160.63,48.2 -248.99,48.2 -401.64,0 -730.97,-329.33 -730.97,-730.98 0,-136.56 40.15,-265.07 104.45,-377.53 -168.71,-80.32 -353.44,-120.47 -554.26,-120.47 z m 1638.63,64.25 c -96.4,152.62 -265.07,248.99 -457.85,248.99 -192.77,0 -361.48,-104.42 -457.85,-248.99 -104.41,112.47 -168.67,257.04 -168.67,425.71 0,345.43 281.13,618.51 618.48,618.51 345.39,0 618.51,-281.13 618.51,-618.51 16.06,-160.63 -48.2,-313.24 -152.62,-425.71 z"
         style="fill:#000000;fill-opacity:1;fill-rule:nonzero;stroke:none"
         id="path24" />
    </g>
  </g>
</svg>
