<?xml version="1.0" encoding="UTF-8" standalone="no"?>
<!-- Created with Inkscape (http://www.inkscape.org/) -->

<svg
   version="1.1"
   id="svg2"
   width="792"
   height="804"
   viewBox="0 0 792 804"
   sodipodi:docname="privity_strong_dynamic2.eps"
   xmlns:inkscape="http://www.inkscape.org/namespaces/inkscape"
   xmlns:sodipodi="http://sodipodi.sourceforge.net/DTD/sodipodi-0.dtd"
   xmlns="http://www.w3.org/2000/svg"
   xmlns:svg="http://www.w3.org/2000/svg">
  <defs
     id="defs6" />
  <sodipodi:namedview
     id="namedview4"
     pagecolor="#ffffff"
     bordercolor="#000000"
     borderopacity="0.25"
     inkscape:showpageshadow="2"
     inkscape:pageopacity="0.0"
     inkscape:pagecheckerboard="0"
     inkscape:deskcolor="#d1d1d1" />
  <g
     id="g8"
     inkscape:groupmode="layer"
     inkscape:label="ink_ext_XXXXXX"
     transform="matrix(1.3333333,0,0,-1.3333333,0,804)">
    <g
       id="g10"
       transform="scale(0.1)">
      <path
         d="M 5921.17,3013.48 C 5921.17,1376.56 4594.22,49.6094 2957.3,49.6094 1320.43,49.6094 -6.55859,1376.56 -6.55859,3013.48 c 0,1636.87 1326.98859,2963.86 2963.85859,2963.86 1636.92,0 2963.87,-1326.99 2963.87,-2963.86 z"
         style="fill:#ff9700;fill-opacity:1;fill-rule:evenodd;stroke:none"
         id="path12" />
      <path
         d="M 5837.11,3017.89 C 5837.11,1410.27 4546.72,107.031 2954.92,107.031 1363.16,107.031 72.7695,1410.27 72.7695,3017.89 c 0,1607.66 1290.3905,2910.9 2882.1505,2910.9 1591.8,0 2882.19,-1303.24 2882.19,-2910.9 z"
         style="fill:none;stroke:#000000;stroke-width:198.425;stroke-linecap:butt;stroke-linejoin:miter;stroke-miterlimit:4;stroke-dasharray:none;stroke-opacity:1"
         id="path14" />
      <path
         d="M 5388.28,3038.2 C 5388.28,1635.08 4302.34,497.621 2962.77,497.621 1623.24,497.621 537.301,1635.08 537.301,3038.2 c 0,1403.09 1085.939,2540.55 2425.469,2540.55 1339.57,0 2425.51,-1137.46 2425.51,-2540.55 z"
         style="fill:none;stroke:#000000;stroke-width:198.425;stroke-linecap:butt;stroke-linejoin:miter;stroke-miterlimit:4;stroke-dasharray:none;stroke-opacity:1"
         id="path16" />
      <path
         d="m 2041.21,3597.54 c 0,-259.53 -224.53,-469.88 -501.44,-469.88 -276.96,0 -501.45,210.35 -501.45,469.88 0,259.49 224.49,469.88 501.45,469.88 276.91,0 501.44,-210.39 501.44,-469.88 z"
         style="fill:#000000;fill-opacity:1;fill-rule:nonzero;stroke:none"
         id="path18" />
      <path
         d="m 1886.13,3172.77 c -96.13,-69.02 -216.21,-110.15 -346.36,-110.15 -130.16,0 -250.24,41.13 -346.41,110.15 -258.872,-90.31 -437.032,-278.55 -437.032,-496.25 0,-305.5 350.782,-291.01 783.402,-291.01 432.69,0 783.39,-14.49 783.39,291.01 0.04,217.74 -178.12,405.94 -436.99,496.25 z"
         style="fill:#000000;fill-opacity:1;fill-rule:nonzero;stroke:none"
         id="path20" />
      <path
         d="m 4607.62,4500.82 c 0,-259.49 -224.5,-469.88 -501.45,-469.88 -276.91,0 -501.44,210.39 -501.44,469.88 0,259.49 224.53,469.88 501.44,469.88 276.95,0 501.45,-210.39 501.45,-469.88 z"
         style="fill:#000000;fill-opacity:1;fill-rule:nonzero;stroke:none"
         id="path22" />
      <path
         d="m 4452.58,4076.05 c -96.13,-69.02 -216.25,-110.15 -346.41,-110.15 -130.15,0 -250.23,41.13 -346.37,110.15 -258.86,-90.31 -437.03,-278.55 -437.03,-496.25 0,-305.5 350.75,-291.01 783.4,-291.01 432.66,0 783.4,-14.49 783.4,291.01 0,217.74 -178.12,405.94 -436.99,496.25 z"
         style="fill:#000000;fill-opacity:1;fill-rule:nonzero;stroke:none"
         id="path24" />
      <path
         d="m 4522.97,2616.88 c 0,-259.54 -224.53,-469.89 -501.45,-469.89 -276.95,0 -501.44,210.35 -501.44,469.89 0,259.49 224.49,469.88 501.44,469.88 276.92,0 501.45,-210.39 501.45,-469.88 z"
         style="fill:#808080;fill-opacity:1;fill-rule:nonzero;stroke:none"
         id="path26" />
      <path
         d="m 4367.89,2192.07 c -96.13,-69.02 -216.21,-110.12 -346.37,-110.12 -130.15,0 -250.23,41.1 -346.4,110.12 -258.87,-90.27 -437.03,-278.52 -437.03,-496.21 0,-305.51 350.78,-291.02 783.39,-291.02 432.7,0 783.4,-14.49 783.4,291.02 0.04,217.69 -178.12,405.94 -436.99,496.21 z"
         style="fill:#808080;fill-opacity:1;fill-rule:nonzero;stroke:none"
         id="path28" />
      <path
         d="m 3182.54,2799.45 c 15.94,6.41 33.01,-4.57 38.16,-24.49 l 148.36,-577.97 c 2.58,-10 1.64,-20.35 -1.91,-29.02 -3.56,-8.67 -9.73,-15.63 -17.74,-18.87 L 2887.7,1963.36 c -15.94,-6.41 -33.01,4.57 -38.13,24.53 l -18.55,72.27 c -5.12,19.92 3.63,41.29 19.57,47.69 l 293.63,118.13 -737.34,473.98 c -14.89,9.57 -20.75,32.46 -13.09,51.09 l 27.69,67.5 c 7.62,18.64 25.9,25.98 40.79,16.41 l 737.34,-473.98 -94.38,367.54 c -5.11,19.96 3.68,41.32 19.61,47.73 z"
         style="fill:#808080;fill-opacity:1;fill-rule:nonzero;stroke:none"
         id="path30" />
      <path
         d="m 2720.43,3927.93 c 2.46,18.75 19.18,30.43 37.3,26.05 l 525.12,-126.48 c 9.1,-2.19 16.84,-8.01 21.95,-15.62 5.16,-7.58 7.74,-16.96 6.49,-26.37 l -71.8,-543.36 c -2.46,-18.75 -19.18,-30.43 -37.3,-26.06 l -65.63,15.79 c -18.12,4.37 -30.82,23.12 -28.36,41.87 l 45.67,345.55 -721.37,-503.83 c -14.57,-10.16 -35.35,-5.16 -46.41,11.17 l -40.07,59.22 c -11.06,16.37 -8.25,37.85 6.32,48.05 l 721.41,503.82 -333.95,80.39 c -18.12,4.38 -30.82,23.13 -28.35,41.88 z"
         style="fill:#000000;fill-opacity:1;fill-rule:nonzero;stroke:none"
         id="path32" />
    </g>
  </g>
</svg>
