<?xml version="1.0" encoding="UTF-8" standalone="no"?>
<!-- Created with Inkscape (http://www.inkscape.org/) -->

<svg
   version="1.1"
   id="svg2"
   width="792"
   height="804"
   viewBox="0 0 792 804"
   sodipodi:docname="privity_public2.eps"
   xmlns:inkscape="http://www.inkscape.org/namespaces/inkscape"
   xmlns:sodipodi="http://sodipodi.sourceforge.net/DTD/sodipodi-0.dtd"
   xmlns="http://www.w3.org/2000/svg"
   xmlns:svg="http://www.w3.org/2000/svg">
  <defs
     id="defs6" />
  <sodipodi:namedview
     id="namedview4"
     pagecolor="#ffffff"
     bordercolor="#000000"
     borderopacity="0.25"
     inkscape:showpageshadow="2"
     inkscape:pageopacity="0.0"
     inkscape:pagecheckerboard="0"
     inkscape:deskcolor="#d1d1d1" />
  <g
     id="g8"
     inkscape:groupmode="layer"
     inkscape:label="ink_ext_XXXXXX"
     transform="matrix(1.3333333,0,0,-1.3333333,0,804)">
    <g
       id="g10"
       transform="scale(0.1)">
      <path
         d="M 5949.22,3008.24 C 5949.22,1371.37 4622.27,44.3789 2985.39,44.3789 1348.48,44.3789 21.5195,1371.37 21.5195,3008.24 c 0,1636.92 1326.9605,2963.87 2963.8705,2963.87 1636.88,0 2963.83,-1326.95 2963.83,-2963.87 z"
         style="fill:#ff9700;fill-opacity:1;fill-rule:evenodd;stroke:none"
         id="path12" />
      <path
         d="M 5865.16,3012.7 C 5865.16,1405.04 4574.77,101.801 2982.97,101.801 1391.21,101.801 100.82,1405.04 100.82,3012.7 c 0,1607.61 1290.39,2910.85 2882.15,2910.85 1591.8,0 2882.19,-1303.24 2882.19,-2910.85 z"
         style="fill:none;stroke:#000000;stroke-width:198.425;stroke-linecap:butt;stroke-linejoin:miter;stroke-miterlimit:4;stroke-dasharray:none;stroke-opacity:1"
         id="path14" />
      <path
         d="m 5416.33,3032.97 c 0,-1403.13 -1085.94,-2540.548 -2425.47,-2540.548 -1339.57,0 -2425.469,1137.418 -2425.469,2540.548 0,1403.12 1085.899,2540.58 2425.469,2540.58 1339.53,0 2425.47,-1137.46 2425.47,-2540.58 z"
         style="fill:none;stroke:#000000;stroke-width:198.425;stroke-linecap:butt;stroke-linejoin:miter;stroke-miterlimit:4;stroke-dasharray:none;stroke-opacity:1"
         id="path16" />
      <path
         d="m 4754.45,4347.5 189.46,-309.14 138.67,-334.84 -49.42,-41.37 -14.68,-172.81 -17.23,-312.19 42.7,-224.61 -30.83,-142.58 -66.56,181.76 -151.33,304.73 -16.13,-65.12 -165.9,126.56 -225.54,-109.18 -57,45.08 -100.89,-52.23 -182.78,113.91 -30.9,-56.99 134.18,-157.86 110.39,-21.36 76.02,109.22 147.15,-92.58 -84.3,-304.06 -215,-240.08 -155.82,-96.17 -112.93,200.03 -119.92,103.09 -26.8,101.09 -82.15,55.24 -133.16,169.22 -23.36,85.62 -11.44,-111.05 -60.24,50.15 -50.19,85.67 25.43,-87.66 81.48,-102.97 102.19,-148.63 146.21,-240.12 229.8,-162.85 79.34,-91.91 233.59,148.9 -42.69,-286.87 -191.72,-237.5 -216.64,-341.56 41.72,-303.01 -237.46,-204.1 -100.04,-160.39 -294.11,-182.23 -249.6,-29.41 -148.29,114.609 -162.07,187.811 -25.86,105.7 66.96,102.11 -41.56,138.67 -211.18,258.05 14.3,174.84 -172.27,58.64 -118.35,104.18 -230.51,-47.47 -250.47,21.06 -191.95,167.34 -111.14,197.74 -49.76,144.84 49.1,218.48 -21.06,99.33 133.4,202.46 168.56,125.51 29.18,82.97 119.25,93.56 65.47,87.61 20.67,-28 101.95,-15.94 102.77,43.63 162.31,11.8 195.43,13.47 38.75,-84.49 -35.31,-49.06 13.86,-42.89 129.85,-31.29 50.54,-49.81 152.35,-63.04 50.54,16.64 -4.84,70.62 47.34,42.07 68.91,-5.82 11.13,-19.18 105.47,-17.89 145.82,-23.4 76.53,49.07 42.81,-15.82 30.86,2.54 57.03,32.93 25.55,148.36 -15.12,116.24 -51.64,-15.15 -61.29,-48.28 -96.41,22.73 -0.93,-32.26 -81.29,9.64 -75.71,64.69 -25,52.31 8.32,64.68 -96.44,-6.87 1.37,-30.27 -42.66,13.04 13.75,-63.36 48.16,-22.69 2.82,-38.52 -44.07,-8.24 13.75,-59.92 -45,18.87 -94.96,147.18 -1.17,73.13 -131.72,74.65 -96.76,102.5 -36.52,-12.78 -11.29,-41.6 45.35,-48.05 12.03,-41.13 71.1,-32.34 3.51,-12.46 94.26,-55.35 -7.73,-17.07 -41.53,29.45 -13.79,-23.36 19.42,-41.17 -43.44,-63.6 -11.05,5.98 16.4,49.18 -24.26,53.32 -101.95,59.45 -71.48,95.78 -49.73,37.54 -99.49,-55.74 -67.11,23.59 -43.83,-26.01 5.47,-38.48 -38.4,-34.18 -47.26,-8.24 -59.07,-63.98 10.28,-46.61 -94.57,-74.64 -76.76,7.54 -55.47,-28.05 -45.7,66.91 -44.85,17 62.03,239.17 39.93,28.99 204.68,-35.04 39.96,122.3 -70,104.61 186.57,72.66 110.19,98.13 123.79,40.19 -19.41,102.89 84.76,33.91 -14.53,-115 71.52,-23.01 195,41.21 36.33,153.75 122.35,69.06 -130.82,-29.14 -41.21,77.58 54.53,91.95 -9.69,46.02 -122.34,-140.43 27.89,-98.09 -41.18,-119.88 -92.07,-12.07 -43.59,107.81 -110.55,-55.43 -53.24,168.05 140.39,48.36 70.16,77.38 223.04,176.88 263.76,-61.68 -3.05,-120.43 79.14,117.54 186.05,132.58 -21.4,190.31 211.87,113.71 334.85,-138.67 308.98,-189.38 275.7,-235.43 z m -743.86,-251.33 36.4,-72.69 53.87,17.61 -13.75,68.91 -43.91,46.37 z m -292,-107.73 43.87,-68.91 126.52,-116.56 20.08,-132.77 127.85,-15.04 53.91,32.61 -150.39,214.26 -102.81,75.2 23.83,71.4 -43.91,36.41 z m -378.51,-47.35 78.12,-22.18 -91.36,-60.9 -32.62,41.72 19.84,26.21 -61.99,24.49 -90.66,-119.53 -11.14,-130.55 88.4,-9.65 159.03,67.62 221.6,-13.79 18.75,57.58 -189.03,103.91 7.5,97.69 z m 220.31,-2118.39 -10.08,-82.97 44.03,1.25 56.64,94.25 -22.62,20.2 z m -118.32,-266.61 74.22,-57.85 -89.3,172.27 z"
         style="fill:#000000;fill-opacity:1;fill-rule:nonzero;stroke:none"
         id="path18" />
      <path
         d="m 2227.54,4820.74 254.96,207.97 -15.9,-52.62 200.04,74.65 327.62,47.74 244.41,99.18 8.36,73.55 -361.33,28.44 -361.36,-28.44 -352.43,-84.65 -64.41,-98.08 272.7,62.46 -200.59,-82.89 -330.39,-232.89 -191.06,-126.1 1.41,-87.03 235.16,144.06 148.82,23.83 z"
         style="fill:#000000;fill-opacity:1;fill-rule:nonzero;stroke:none"
         id="path20" />
      <path
         d="m 2490.78,3658.05 -32.81,-26.45 8.4,-26.56 -10.47,-49.61 38.4,9.1 14.65,62.15 z"
         style="fill:#000000;fill-opacity:1;fill-rule:nonzero;stroke:none"
         id="path22" />
      <path
         d="m 2487.93,3664.65 20.59,50.19 -10.04,13.09 -27.27,-19.57 z"
         style="fill:#000000;fill-opacity:1;fill-rule:nonzero;stroke:none"
         id="path24" />
      <path
         d="m 2612.66,3512.85 -0.2,-19.88 80.51,-48.75 19.02,11.48 -8.75,27.42 16.29,39.97 -38.83,-17.35 z"
         style="fill:#000000;fill-opacity:1;fill-rule:nonzero;stroke:none"
         id="path26" />
      <path
         d="m 3101.52,3380.08 50,30.23 -34.49,-9.8 -79.45,8.44 z"
         style="fill:#000000;fill-opacity:1;fill-rule:nonzero;stroke:none"
         id="path28" />
      <path
         d="m 3404.02,3444.02 -27.5,-20.66 17.11,-13.16 36.68,17.1 27.07,41.02 z"
         style="fill:#000000;fill-opacity:1;fill-rule:nonzero;stroke:none"
         id="path30" />
      <path
         d="m 3959.45,1109.02 209.53,216.18 89.18,162.69 -4.45,93.59 -78.05,-109.21 -158.28,-111.41 -2.18,-89.18 -62.43,-64.57 z"
         style="fill:#000000;fill-opacity:1;fill-rule:nonzero;stroke:none"
         id="path32" />
    </g>
  </g>
</svg>
